<svg id="svg" version="1.1" xmlns="http://www.w3.org/2000/svg" xmlns:xlink="http://www.w3.org/1999/xlink" width="400" height="400" viewBox="0, 0, 400,400"><g id="svgg"><path id="path0" d="M290.458 43.341 C 286.483 47.326,285.556 48.468,285.668 49.241 C 285.744 49.769,285.535 50.419,285.203 50.687 C 284.785 51.025,284.753 51.178,285.100 51.187 C 286.188 51.215,285.520 51.957,284.301 52.075 C 283.244 52.177,282.847 52.499,282.174 53.800 C 281.719 54.679,280.999 55.462,280.573 55.538 C 279.652 55.703,277.200 57.954,277.200 58.635 C 277.200 58.898,276.752 59.226,276.205 59.363 C 275.658 59.500,274.894 60.105,274.509 60.706 C 274.123 61.308,273.416 62.231,272.939 62.758 C 272.461 63.285,272.163 63.960,272.278 64.258 C 272.418 64.623,272.166 64.800,271.509 64.800 C 270.210 64.800,269.863 65.212,270.667 65.800 C 271.593 66.477,271.101 67.012,269.018 67.595 C 266.987 68.164,266.343 68.755,266.258 70.128 C 266.219 70.764,266.000 71.020,265.587 70.913 C 264.671 70.673,257.764 77.924,258.350 78.510 C 259.198 79.358,258.831 79.843,257.462 79.683 C 256.207 79.537,253.200 82.050,253.200 83.245 C 253.200 83.411,252.836 83.662,252.390 83.803 C 251.945 83.944,250.871 85.021,250.003 86.196 C 247.981 88.933,246.781 90.193,245.881 90.525 C 245.486 90.670,244.976 91.324,244.748 91.978 C 244.520 92.632,243.943 93.285,243.467 93.428 C 242.425 93.742,240.800 95.495,240.800 96.305 C 240.800 96.645,240.562 96.794,240.226 96.665 C 239.462 96.372,237.600 97.869,237.600 98.775 C 237.600 99.936,236.061 101.594,235.078 101.491 C 234.319 101.412,234.184 101.621,234.080 103.038 C 233.973 104.498,233.778 104.776,232.280 105.608 C 231.356 106.121,229.904 107.229,229.053 108.070 C 228.202 108.912,227.278 109.600,227.000 109.600 C 226.722 109.600,226.033 110.185,225.469 110.900 C 224.905 111.615,223.623 113.099,222.622 114.197 C 221.620 115.296,220.800 116.483,220.800 116.835 C 220.800 117.580,219.572 118.800,218.822 118.800 C 217.696 118.800,210.870 125.738,208.749 129.037 C 208.171 129.938,207.000 131.093,206.149 131.604 C 205.297 132.116,204.084 133.044,203.453 133.667 C 202.821 134.290,202.081 134.800,201.807 134.800 C 201.533 134.800,200.808 135.523,200.195 136.407 C 199.583 137.291,198.369 138.658,197.498 139.445 C 196.323 140.506,195.860 141.275,195.707 142.417 C 195.528 143.754,195.334 143.994,194.250 144.230 C 192.852 144.533,190.001 146.614,189.997 147.334 C 189.996 147.590,189.468 148.100,188.825 148.466 C 188.181 148.832,187.131 149.854,186.491 150.738 C 185.851 151.622,184.758 152.823,184.063 153.408 C 183.369 153.993,182.800 154.787,182.800 155.174 C 182.800 156.113,181.546 157.200,180.462 157.200 C 179.856 157.200,179.382 157.630,178.921 158.596 C 178.555 159.364,177.973 160.088,177.628 160.206 C 176.635 160.546,174.978 162.149,173.836 163.874 C 173.259 164.746,172.250 165.856,171.593 166.342 C 170.937 166.827,170.400 167.418,170.400 167.654 C 170.400 167.891,169.950 168.439,169.400 168.871 C 168.850 169.304,168.400 169.926,168.400 170.253 C 168.400 170.580,168.214 170.732,167.986 170.591 C 167.758 170.450,166.223 171.647,164.576 173.250 C 162.928 174.853,161.445 176.263,161.281 176.383 C 161.116 176.502,160.661 177.103,160.270 177.718 C 159.878 178.333,159.118 179.003,158.579 179.208 C 157.769 179.516,157.600 179.852,157.600 181.158 C 157.600 182.618,157.502 182.756,156.300 183.003 C 155.585 183.149,154.370 183.870,153.600 184.605 C 152.830 185.341,151.197 186.900,149.971 188.071 C 148.745 189.242,147.250 190.634,146.648 191.164 C 146.047 191.694,145.273 192.684,144.929 193.364 C 144.063 195.075,143.191 195.999,142.438 196.004 C 142.087 196.006,140.810 197.164,139.600 198.578 C 138.390 199.993,137.203 201.161,136.962 201.175 C 136.350 201.210,135.201 202.547,135.195 203.231 C 135.192 203.544,134.557 204.210,133.783 204.712 C 132.850 205.316,132.292 206.039,132.129 206.857 C 131.949 207.756,131.531 208.237,130.589 208.630 C 129.369 209.140,127.200 211.284,127.200 211.981 C 127.200 212.156,126.693 212.401,126.074 212.525 C 125.295 212.681,124.589 213.317,123.787 214.586 C 123.149 215.595,122.212 216.693,121.706 217.025 C 121.199 217.357,120.259 218.354,119.617 219.240 C 118.976 220.126,117.730 221.372,116.850 222.010 C 115.969 222.648,114.203 224.297,112.925 225.676 C 111.646 227.054,109.657 229.160,108.505 230.356 C 107.352 231.552,106.182 233.046,105.905 233.676 C 105.489 234.620,105.188 234.803,104.200 234.711 C 102.741 234.576,102.423 236.262,102.222 245.200 C 102.156 248.170,101.896 251.112,101.646 251.738 C 101.396 252.364,101.210 254.755,101.232 257.053 C 101.258 259.686,101.102 261.436,100.811 261.787 C 100.493 262.170,100.387 264.193,100.474 268.238 C 100.569 272.689,100.478 274.173,100.100 274.299 C 99.733 274.422,99.600 275.896,99.600 279.833 C 99.600 283.144,99.447 285.200,99.200 285.200 C 98.980 285.200,98.800 286.077,98.800 287.148 L 98.800 289.097 100.858 289.370 C 103.144 289.673,105.457 290.722,107.658 292.453 C 109.286 293.735,109.600 293.836,109.600 293.078 C 109.600 292.791,110.735 291.396,112.122 289.978 C 114.440 287.609,115.260 286.455,115.374 285.400 C 115.398 285.180,115.732 285.054,116.115 285.119 C 116.499 285.184,116.765 285.084,116.706 284.897 C 116.599 284.553,117.695 283.448,119.971 281.604 C 120.647 281.057,121.200 280.371,121.200 280.081 C 121.200 279.790,121.384 279.666,121.609 279.805 C 122.116 280.119,124.588 277.388,124.595 276.506 C 124.598 276.133,125.092 275.728,125.763 275.548 C 127.068 275.197,129.600 272.928,129.600 272.109 C 129.600 271.815,129.890 271.464,130.244 271.328 C 131.534 270.833,132.819 269.316,132.548 268.608 C 132.346 268.081,132.462 267.955,133.042 268.074 C 133.459 268.159,133.994 267.975,134.232 267.664 C 134.581 267.206,134.836 267.191,135.572 267.585 C 137.096 268.400,166.813 298.511,167.058 299.487 C 167.265 300.313,168.400 300.827,168.400 300.095 C 168.400 299.927,168.805 299.605,169.300 299.380 C 169.795 299.155,170.151 298.739,170.090 298.456 C 170.030 298.172,170.144 298.042,170.345 298.166 C 170.545 298.290,170.955 298.089,171.255 297.719 C 171.723 297.141,171.716 297.093,171.200 297.381 C 170.870 297.565,171.329 296.925,172.219 295.958 C 176.744 291.045,188.542 278.811,193.008 274.400 C 195.792 271.650,200.439 266.984,203.335 264.032 C 221.768 245.237,228.235 238.800,228.687 238.800 C 228.969 238.800,229.200 238.524,229.200 238.187 C 229.200 237.851,229.515 237.454,229.900 237.307 C 230.285 237.160,230.929 236.670,231.330 236.219 C 231.732 235.769,231.947 235.625,231.807 235.900 C 231.667 236.175,231.645 236.400,231.758 236.400 C 231.870 236.400,232.261 235.772,232.625 235.004 C 232.990 234.235,233.448 233.706,233.644 233.827 C 233.840 233.948,234.000 233.884,234.000 233.685 C 234.000 232.288,262.222 203.600,263.596 203.600 C 263.832 203.600,264.143 203.293,264.287 202.919 C 264.614 202.065,269.449 197.200,269.969 197.200 C 270.180 197.200,270.481 196.992,270.638 196.738 C 270.828 196.431,270.746 196.386,270.393 196.605 C 268.215 197.950,290.077 175.173,298.670 167.144 C 299.291 166.563,302.590 163.164,306.000 159.590 C 311.535 153.789,321.129 143.963,338.200 126.609 C 341.280 123.478,345.128 119.540,346.752 117.858 C 348.375 116.176,349.866 114.800,350.065 114.800 C 350.264 114.800,351.061 114.166,351.836 113.391 C 352.611 112.615,353.443 112.103,353.685 112.252 C 353.942 112.411,354.010 112.340,353.849 112.080 C 353.691 111.824,355.212 109.999,357.423 107.787 C 359.540 105.670,361.192 103.858,361.093 103.760 C 360.995 103.662,358.541 105.926,355.640 108.791 C 352.738 111.656,350.211 114.000,350.023 114.000 C 349.835 114.000,346.634 110.895,342.910 107.100 C 339.185 103.305,332.552 96.552,328.169 92.094 C 319.130 82.901,319.077 82.806,321.539 80.319 C 322.434 79.415,323.045 78.461,322.926 78.152 C 322.798 77.819,322.978 77.600,323.381 77.600 C 324.220 77.600,327.600 74.808,327.600 74.115 C 327.600 73.832,327.735 73.621,327.900 73.647 C 328.503 73.743,329.017 73.562,329.776 72.988 C 330.680 72.304,331.829 73.550,310.163 51.731 C 301.923 43.432,296.636 38.400,296.157 38.400 C 295.706 38.400,293.352 40.441,290.458 43.341 M285.925 106.775 C 286.025 107.075,285.875 107.225,285.575 107.125 C 285.286 107.029,284.971 106.714,284.875 106.425 C 284.775 106.125,284.925 105.975,285.225 106.075 C 285.514 106.171,285.829 106.486,285.925 106.775 M289.200 109.176 C 289.200 109.923,288.310 110.081,287.676 109.447 C 287.079 108.851,287.114 108.800,288.114 108.800 C 288.711 108.800,289.200 108.969,289.200 109.176 M256.183 119.572 C 256.479 120.051,255.726 120.525,255.193 120.196 C 254.746 119.919,255.040 119.200,255.600 119.200 C 255.794 119.200,256.056 119.368,256.183 119.572 M264.061 134.499 C 263.647 134.913,262.800 134.587,262.800 134.014 C 262.800 133.827,263.172 133.772,263.626 133.891 C 264.166 134.032,264.317 134.243,264.061 134.499 M195.775 137.700 L 194.600 139.000 195.900 137.825 C 197.112 136.730,197.384 136.400,197.075 136.400 C 197.006 136.400,196.421 136.985,195.775 137.700 M250.448 147.770 C 250.744 147.588,250.738 147.768,250.431 148.343 C 249.983 149.178,249.979 149.179,249.191 148.391 C 248.175 147.375,248.182 147.055,249.208 147.604 C 249.653 147.842,250.211 147.917,250.448 147.770 M242.325 156.700 C 242.252 157.085,241.789 157.458,241.296 157.528 C 240.328 157.666,240.274 157.593,240.643 156.633 C 240.986 155.737,242.497 155.798,242.325 156.700 M237.903 161.079 C 236.711 162.271,236.086 162.134,236.782 160.834 C 237.027 160.375,237.623 160.000,238.105 160.000 C 238.958 160.000,238.952 160.030,237.903 161.079 M234.308 164.475 C 234.061 165.217,233.200 165.340,233.200 164.633 C 233.200 164.285,233.485 164.000,233.833 164.000 C 234.182 164.000,234.395 164.214,234.308 164.475 M225.206 173.582 C 224.659 174.002,224.146 174.279,224.066 174.199 C 223.787 173.920,225.003 172.830,225.600 172.824 C 225.992 172.820,225.856 173.082,225.206 173.582 M200.800 181.400 C 200.800 181.730,200.620 182.000,200.400 182.000 C 200.180 182.000,200.000 181.730,200.000 181.400 C 200.000 181.070,200.180 180.800,200.400 180.800 C 200.620 180.800,200.800 181.070,200.800 181.400 M211.923 186.430 C 211.845 186.667,211.609 186.860,211.400 186.860 C 211.191 186.860,210.956 186.667,210.877 186.430 C 210.798 186.194,211.033 186.000,211.400 186.000 C 211.767 186.000,212.002 186.194,211.923 186.430 M137.830 207.103 C 137.424 207.510,136.688 206.505,137.010 205.983 C 137.231 205.627,137.412 205.679,137.692 206.179 C 137.902 206.553,137.964 206.970,137.830 207.103 M124.400 222.024 C 124.400 222.231,124.130 222.400,123.800 222.400 C 123.181 222.400,123.005 221.928,123.456 221.478 C 123.775 221.158,124.400 221.519,124.400 222.024 M119.200 226.187 C 119.200 226.545,118.965 226.685,118.600 226.545 C 118.270 226.418,118.000 226.154,118.000 225.957 C 118.000 225.761,118.270 225.600,118.600 225.600 C 118.930 225.600,119.200 225.864,119.200 226.187 M165.200 233.800 C 165.200 234.133,164.844 234.400,164.400 234.400 C 163.603 234.400,163.360 233.974,163.867 233.467 C 164.354 232.979,165.200 233.191,165.200 233.800 M110.000 237.976 C 110.000 239.494,109.491 239.785,108.586 238.784 C 107.890 238.015,107.891 237.967,108.632 237.406 C 109.752 236.559,110.000 236.662,110.000 237.976 M161.363 237.800 C 160.654 238.883,160.000 239.113,160.000 238.280 C 160.000 237.607,160.812 236.800,161.489 236.800 C 161.895 236.800,161.865 237.034,161.363 237.800 M157.450 241.813 C 157.159 242.572,156.000 242.578,156.000 241.820 C 156.000 241.117,157.334 240.265,157.538 240.838 C 157.613 241.052,157.574 241.490,157.450 241.813 M110.588 246.380 C 110.717 246.589,110.444 246.963,109.981 247.210 C 109.209 247.623,109.176 247.592,109.584 246.830 C 110.080 245.903,110.246 245.828,110.588 246.380 M117.757 247.033 C 117.907 247.423,117.818 247.606,117.525 247.508 C 116.927 247.309,116.598 246.400,117.124 246.400 C 117.339 246.400,117.624 246.685,117.757 247.033 M148.945 249.400 C 148.690 250.065,148.162 250.186,147.834 249.656 C 147.567 249.223,147.972 248.800,148.654 248.800 C 148.953 248.800,149.077 249.056,148.945 249.400 M130.817 260.328 C 130.213 260.529,129.152 259.602,129.444 259.129 C 129.576 258.915,130.027 259.063,130.470 259.464 C 130.938 259.887,131.080 260.240,130.817 260.328 M134.680 263.761 C 134.470 264.389,133.716 264.479,133.495 263.903 C 133.369 263.576,133.583 263.371,134.050 263.371 C 134.468 263.371,134.751 263.547,134.680 263.761 M159.700 300.283 C 157.571 300.558,158.225 301.200,160.633 301.200 C 162.241 301.200,162.821 301.060,162.702 300.700 C 162.520 300.147,161.665 300.029,159.700 300.283 M147.900 301.076 C 146.683 301.394,147.142 302.000,148.600 302.000 C 149.370 302.000,150.000 301.833,150.000 301.629 C 150.000 301.425,150.315 301.176,150.700 301.076 C 151.085 300.975,150.770 300.893,150.000 300.893 C 149.230 300.893,148.285 300.975,147.900 301.076 M137.100 301.887 C 135.171 302.179,135.919 302.800,138.200 302.800 C 140.325 302.800,141.073 302.344,139.767 301.843 C 139.121 301.595,139.013 301.597,137.100 301.887 M125.700 302.695 C 122.918 302.890,122.997 303.600,125.800 303.600 C 127.010 303.600,128.000 303.433,128.000 303.228 C 128.000 303.023,128.405 302.778,128.900 302.682 C 130.029 302.465,128.927 302.469,125.700 302.695 M113.811 303.982 C 113.642 304.255,114.399 304.400,116.000 304.400 C 117.346 304.400,118.356 304.253,118.245 304.072 C 117.940 303.579,114.108 303.501,113.811 303.982 " stroke="none" fill="#f4ca56" fill-rule="evenodd"></path><path id="path1" d="M342.097 60.903 C 336.104 66.899,331.200 71.978,331.200 72.190 C 331.200 72.401,334.674 76.090,338.920 80.387 C 343.165 84.684,349.914 91.614,353.916 95.787 L 361.193 103.374 362.996 101.604 C 363.988 100.630,364.800 99.631,364.800 99.383 C 364.800 99.135,365.340 98.451,366.000 97.863 C 366.660 97.275,367.200 96.534,367.200 96.217 C 367.200 95.899,367.425 95.496,367.700 95.320 C 368.442 94.845,369.110 93.488,369.423 91.817 C 369.576 91.003,369.941 90.244,370.233 90.132 C 370.587 89.996,370.688 89.540,370.534 88.770 C 370.368 87.941,370.478 87.545,370.920 87.376 C 371.393 87.194,371.521 86.574,371.468 84.704 C 371.422 83.061,371.563 82.215,371.900 82.101 C 372.540 81.886,372.562 78.921,371.925 78.708 C 371.618 78.606,371.458 77.610,371.474 75.898 C 371.492 74.017,371.342 73.186,370.957 73.039 C 370.592 72.899,370.490 72.451,370.645 71.673 C 370.810 70.850,370.702 70.448,370.270 70.282 C 369.886 70.135,369.741 69.745,369.878 69.224 C 370.000 68.755,369.901 68.400,369.647 68.400 C 369.401 68.400,369.200 68.040,369.200 67.600 C 369.200 67.160,369.020 66.800,368.800 66.800 C 368.580 66.800,368.400 66.549,368.400 66.243 C 368.400 65.936,368.119 65.578,367.775 65.446 C 367.431 65.314,367.266 65.017,367.408 64.787 C 367.551 64.556,367.202 64.002,366.634 63.555 C 366.065 63.108,365.600 62.567,365.600 62.352 C 365.600 61.947,353.631 50.000,353.225 50.000 C 353.098 50.000,348.091 54.906,342.097 60.903 M81.000 77.998 C 80.560 78.188,79.356 78.356,78.324 78.372 C 77.292 78.387,76.336 78.580,76.200 78.800 C 76.064 79.020,75.432 79.200,74.795 79.200 C 74.159 79.200,73.224 79.357,72.719 79.549 C 72.213 79.741,71.080 80.113,70.200 80.375 C 69.320 80.638,68.195 81.021,67.700 81.226 C 67.205 81.432,66.395 81.756,65.900 81.946 C 63.130 83.013,62.582 83.274,58.800 85.331 C 56.598 86.528,53.176 88.731,52.800 89.193 C 52.690 89.328,51.970 89.867,51.200 90.391 C 48.407 92.292,39.200 102.054,39.200 103.115 C 39.200 103.313,38.840 103.802,38.400 104.200 C 37.960 104.598,37.600 105.093,37.600 105.300 C 37.600 105.507,37.261 106.154,36.847 106.738 C 35.599 108.498,34.400 110.788,34.400 111.412 C 34.400 111.735,34.220 112.000,34.000 112.000 C 33.780 112.000,33.600 112.360,33.600 112.800 C 33.600 113.249,33.333 113.600,32.992 113.600 C 32.544 113.600,32.451 113.862,32.636 114.600 C 32.790 115.216,32.717 115.600,32.443 115.600 C 32.200 115.600,32.000 116.039,32.000 116.576 C 32.000 117.113,31.820 117.664,31.600 117.800 C 31.380 117.936,31.200 118.492,31.200 119.036 C 31.200 119.580,30.937 120.126,30.616 120.249 C 30.228 120.398,30.060 120.963,30.116 121.937 C 30.174 122.949,30.042 123.368,29.686 123.295 C 29.294 123.215,29.234 123.666,29.436 125.188 C 29.650 126.801,29.580 127.233,29.073 127.427 C 28.576 127.618,28.493 128.069,28.674 129.594 C 28.952 131.946,28.481 136.097,27.971 135.782 C 27.744 135.642,27.600 170.421,27.600 225.543 C 27.600 297.179,27.702 315.567,28.100 315.701 C 28.450 315.818,28.599 316.935,28.598 319.434 C 28.596 322.027,28.749 323.120,29.159 323.439 C 29.563 323.755,29.649 324.333,29.463 325.497 C 29.262 326.754,29.342 327.169,29.821 327.353 C 30.284 327.531,30.375 327.926,30.185 328.939 C 29.992 329.970,30.084 330.347,30.576 330.535 C 31.025 330.708,31.147 331.071,30.980 331.737 C 30.818 332.383,30.934 332.766,31.339 332.921 C 31.729 333.071,31.858 333.456,31.709 334.026 C 31.560 334.596,31.704 335.027,32.124 335.261 C 32.477 335.459,32.665 335.886,32.541 336.211 C 32.416 336.535,32.514 336.800,32.757 336.800 C 33.001 336.800,33.200 337.065,33.200 337.388 C 33.200 337.711,33.588 338.656,34.063 339.488 C 34.537 340.320,35.125 341.360,35.368 341.800 C 37.353 345.386,42.378 351.940,45.625 355.178 C 50.226 359.765,56.508 364.800,57.630 364.800 C 57.847 364.800,58.129 365.070,58.255 365.400 C 58.382 365.730,58.826 366.000,59.243 366.000 C 59.659 366.000,60.000 366.146,60.000 366.325 C 60.000 366.504,60.630 366.898,61.400 367.200 C 62.170 367.502,62.800 367.917,62.800 368.121 C 62.800 368.326,63.171 368.396,63.624 368.278 C 64.139 368.143,64.534 368.285,64.676 368.654 C 64.801 368.980,65.137 369.156,65.422 369.047 C 65.708 368.937,66.167 369.119,66.443 369.452 C 66.719 369.784,67.283 369.967,67.697 369.859 C 68.136 369.744,68.543 369.907,68.675 370.252 C 68.834 370.666,69.233 370.768,70.017 370.596 C 70.833 370.417,71.236 370.536,71.517 371.037 C 71.751 371.455,72.155 371.626,72.550 371.474 C 73.370 371.160,74.472 371.560,74.163 372.060 C 74.021 372.290,74.722 372.332,75.958 372.168 C 77.514 371.961,78.036 372.029,78.201 372.458 C 78.365 372.885,79.337 373.018,82.278 373.018 C 84.973 373.018,86.189 373.166,86.303 373.509 C 86.530 374.189,264.808 374.232,265.487 373.553 C 265.748 373.292,267.573 373.084,269.867 373.053 C 272.543 373.017,273.980 372.829,274.364 372.464 C 274.752 372.096,275.456 372.007,276.615 372.181 C 277.968 372.384,278.351 372.303,278.555 371.773 C 278.753 371.257,279.114 371.170,280.211 371.376 C 281.251 371.571,281.585 371.505,281.506 371.119 C 281.433 370.763,281.808 370.632,282.700 370.702 C 283.635 370.775,284.000 370.634,284.000 370.202 C 284.000 369.830,284.374 369.600,284.976 369.600 C 285.513 369.600,286.069 369.413,286.210 369.184 C 286.352 368.955,286.791 368.870,287.186 368.996 C 287.637 369.139,287.999 368.980,288.156 368.570 C 288.294 368.211,288.660 368.014,288.970 368.133 C 289.280 368.252,289.637 368.079,289.764 367.749 C 289.891 367.419,290.155 367.249,290.352 367.370 C 290.548 367.492,290.923 367.334,291.184 367.019 C 291.445 366.705,291.915 366.546,292.229 366.667 C 292.543 366.787,292.800 366.682,292.800 366.433 C 292.800 366.184,293.205 365.813,293.700 365.608 C 305.883 360.568,319.525 341.696,322.764 325.400 C 322.983 324.300,323.360 322.410,323.602 321.200 C 324.219 318.117,323.966 221.623,323.335 219.514 C 322.005 215.068,316.174 207.200,314.208 207.200 C 313.874 207.200,313.600 207.064,313.600 206.898 C 313.600 206.731,313.015 206.356,312.300 206.064 C 309.550 204.941,308.978 204.696,308.305 204.353 C 307.338 203.861,297.708 203.902,297.400 204.400 C 297.264 204.620,296.801 204.800,296.371 204.800 C 295.941 204.800,295.277 204.962,294.895 205.160 C 294.513 205.357,293.319 205.942,292.243 206.460 C 288.381 208.315,282.400 215.556,282.400 218.376 C 282.400 218.741,282.175 219.265,281.900 219.540 C 281.508 219.932,281.357 230.485,281.200 268.520 C 281.035 308.512,280.904 317.210,280.449 318.200 C 278.622 322.183,278.003 323.168,276.186 324.986 C 274.104 327.067,270.763 329.072,270.080 328.649 C 269.866 328.517,269.487 328.654,269.238 328.954 C 268.926 329.330,268.225 329.437,266.993 329.298 C 265.807 329.164,265.200 329.249,265.200 329.548 C 265.200 329.883,242.095 330.000,176.200 330.000 C 113.174 330.000,87.200 329.875,87.200 329.571 C 87.200 329.305,86.407 329.191,85.100 329.271 C 83.678 329.358,83.028 329.252,83.086 328.941 C 83.135 328.681,82.860 328.564,82.451 328.671 C 81.110 329.021,74.447 324.043,74.409 322.662 C 74.404 322.476,74.021 321.792,73.559 321.142 C 73.096 320.492,72.806 319.621,72.914 319.206 C 73.026 318.781,72.871 318.359,72.560 318.240 C 72.136 318.077,72.067 317.473,72.262 315.614 C 72.438 313.923,72.377 313.200,72.057 313.200 C 71.761 313.200,71.600 312.283,71.600 310.600 C 71.600 309.133,71.774 308.000,72.000 308.000 C 72.220 308.000,72.397 307.325,72.394 306.500 C 72.389 305.384,72.288 305.154,72.000 305.600 C 71.741 306.001,71.610 303.985,71.606 299.533 C 71.602 294.586,71.729 292.806,72.100 292.633 C 72.500 292.447,72.500 292.353,72.100 292.167 C 71.761 292.009,71.600 290.904,71.600 288.743 C 71.600 286.718,71.746 285.643,72.000 285.800 C 72.220 285.936,72.400 285.677,72.400 285.224 C 72.400 284.771,72.220 284.400,72.000 284.400 C 71.383 284.400,71.475 271.800,72.100 270.742 C 72.500 270.065,72.500 269.859,72.100 269.714 C 71.757 269.590,71.600 268.532,71.600 266.343 C 71.600 264.318,71.746 263.243,72.000 263.400 C 72.227 263.540,72.400 263.204,72.400 262.624 C 72.400 262.061,72.220 261.600,72.000 261.600 C 71.750 261.600,71.600 259.259,71.600 255.376 C 71.600 251.329,71.740 249.239,72.000 249.400 C 72.220 249.536,72.400 249.457,72.400 249.224 C 72.400 248.991,72.220 248.800,72.000 248.800 C 71.760 248.800,71.600 247.192,71.600 244.776 C 71.600 242.196,71.743 240.841,72.000 241.000 C 72.220 241.136,72.400 241.057,72.400 240.824 C 72.400 240.591,72.220 240.400,72.000 240.400 C 71.749 240.400,71.600 237.933,71.600 233.800 C 71.600 229.667,71.749 227.200,72.000 227.200 C 72.220 227.200,72.400 226.919,72.400 226.576 C 72.400 226.233,72.220 226.064,72.000 226.200 C 71.743 226.359,71.600 224.996,71.600 222.400 C 71.600 219.804,71.743 218.441,72.000 218.600 C 72.220 218.736,72.400 218.667,72.400 218.447 C 72.400 218.227,72.220 217.936,72.000 217.800 C 71.376 217.415,71.472 205.314,72.100 205.083 C 72.500 204.937,72.500 204.794,72.100 204.370 C 71.489 203.723,71.398 197.200,72.000 197.200 C 72.220 197.200,72.400 196.930,72.400 196.600 C 72.400 196.270,72.220 196.000,72.000 196.000 C 71.749 196.000,71.600 193.467,71.600 189.200 C 71.600 184.933,71.749 182.400,72.000 182.400 C 72.220 182.400,72.400 182.209,72.400 181.976 C 72.400 181.743,72.220 181.664,72.000 181.800 C 71.745 181.958,71.600 180.796,71.600 178.600 C 71.600 176.404,71.745 175.242,72.000 175.400 C 72.220 175.536,72.400 175.367,72.400 175.024 C 72.400 174.681,72.220 174.400,72.000 174.400 C 71.749 174.400,71.600 171.867,71.600 167.600 C 71.600 163.333,71.749 160.800,72.000 160.800 C 72.220 160.800,72.400 160.530,72.400 160.200 C 72.400 159.870,72.226 159.600,72.014 159.600 C 71.776 159.600,71.623 155.606,71.614 149.200 C 71.605 142.228,71.739 138.800,72.019 138.800 C 72.291 138.800,72.366 137.682,72.234 135.581 C 72.071 132.999,72.146 132.319,72.613 132.140 C 72.933 132.017,73.085 131.738,72.951 131.520 C 72.691 131.100,73.463 129.357,74.300 128.471 C 74.575 128.181,74.800 127.797,74.800 127.618 C 74.800 127.077,78.897 123.200,79.468 123.200 C 79.761 123.200,80.000 123.064,80.000 122.898 C 80.000 122.731,80.585 122.360,81.300 122.071 C 82.015 121.783,82.960 121.342,83.400 121.091 C 83.985 120.756,96.590 120.619,130.400 120.578 C 175.087 120.525,180.022 120.425,182.600 119.525 C 186.503 118.161,193.600 113.273,193.600 111.948 C 193.600 111.738,193.960 111.180,194.400 110.708 C 194.840 110.236,195.200 109.613,195.200 109.325 C 195.200 109.036,195.380 108.800,195.600 108.800 C 195.820 108.800,196.000 108.451,196.000 108.024 C 196.000 107.597,196.180 107.136,196.400 107.000 C 196.620 106.864,196.800 106.349,196.800 105.856 C 196.800 105.363,196.995 104.765,197.234 104.526 C 197.868 103.892,197.936 94.458,197.313 93.640 C 197.045 93.288,196.820 92.595,196.813 92.100 C 196.806 91.605,196.620 91.200,196.400 91.200 C 196.180 91.200,196.000 90.947,196.000 90.638 C 196.000 86.902,187.664 79.772,181.400 78.149 C 179.737 77.718,81.989 77.571,81.000 77.998 M103.900 299.097 C 99.133 303.879,98.332 305.200,100.200 305.200 C 100.750 305.200,101.203 304.975,101.206 304.700 C 101.210 304.366,101.343 304.399,101.606 304.800 C 101.883 305.222,102.089 305.266,102.300 304.950 C 103.046 303.832,109.177 303.808,108.549 304.926 C 108.367 305.250,108.453 305.242,108.821 304.900 C 109.118 304.625,110.105 304.400,111.016 304.400 C 113.989 304.400,114.024 301.663,111.113 296.805 C 109.291 293.765,109.181 293.800,103.900 299.097 " stroke="none" fill="#5329ae" fill-rule="evenodd"></path><path id="path2" d="M329.411 73.193 C 328.772 73.612,328.104 73.864,327.925 73.754 C 327.746 73.643,327.600 73.795,327.600 74.092 C 327.600 74.802,324.235 77.600,323.381 77.600 C 322.978 77.600,322.798 77.819,322.926 78.152 C 323.045 78.461,322.434 79.415,321.539 80.319 C 319.077 82.806,319.130 82.901,328.169 92.094 C 332.552 96.552,339.185 103.305,342.910 107.100 C 346.634 110.895,349.835 114.000,350.023 114.000 C 350.590 114.000,360.885 103.652,360.737 103.230 C 360.662 103.015,357.270 99.447,353.200 95.303 C 349.130 91.159,342.719 84.625,338.953 80.784 C 329.855 71.504,330.818 72.270,329.411 73.193 M109.584 246.830 C 109.176 247.592,109.209 247.623,109.981 247.210 C 110.444 246.963,110.717 246.589,110.588 246.380 C 110.246 245.828,110.080 245.903,109.584 246.830 M134.162 267.756 C 134.031 268.096,133.623 268.226,133.107 268.092 C 132.426 267.913,132.317 268.007,132.539 268.584 C 132.820 269.317,131.560 270.823,130.244 271.328 C 129.890 271.464,129.600 271.815,129.600 272.109 C 129.600 272.928,127.068 275.197,125.763 275.548 C 125.092 275.728,124.598 276.133,124.595 276.506 C 124.588 277.388,122.116 280.119,121.609 279.805 C 121.384 279.666,121.200 279.790,121.200 280.081 C 121.200 280.371,120.647 281.057,119.971 281.604 C 117.695 283.448,116.599 284.553,116.706 284.897 C 116.765 285.084,116.499 285.184,116.115 285.119 C 115.732 285.054,115.398 285.180,115.374 285.400 C 115.260 286.449,114.455 287.594,112.280 289.800 C 109.191 292.932,109.033 293.402,110.395 295.400 C 111.749 297.386,113.087 300.392,113.430 302.217 L 113.689 303.600 118.611 303.600 C 121.961 303.600,123.582 303.453,123.686 303.141 C 123.793 302.820,125.635 302.695,129.805 302.726 C 133.964 302.756,135.859 302.628,136.060 302.303 C 136.262 301.977,137.942 301.866,141.640 301.935 C 145.623 302.010,147.011 301.907,147.253 301.517 C 147.496 301.125,148.850 301.032,152.843 301.132 C 156.801 301.232,158.191 301.137,158.428 300.754 C 158.657 300.384,159.908 300.264,162.972 300.318 C 169.236 300.428,170.456 302.181,149.923 281.577 C 135.486 267.089,134.686 266.388,134.162 267.756 " stroke="none" fill="#ee6b12" fill-rule="evenodd"></path><path id="path3" d="M312.600 26.400 C 312.464 26.620,312.003 26.800,311.576 26.800 C 311.149 26.800,310.800 26.980,310.800 27.200 C 310.800 27.420,310.260 27.600,309.600 27.600 C 308.940 27.600,308.400 27.780,308.400 28.000 C 308.400 28.220,307.950 28.400,307.400 28.400 C 306.850 28.400,306.400 28.580,306.400 28.800 C 306.400 29.020,306.040 29.200,305.600 29.200 C 305.160 29.200,304.800 29.380,304.800 29.600 C 304.800 29.820,304.530 30.000,304.200 30.000 C 303.870 30.000,303.600 30.180,303.600 30.400 C 303.600 30.620,303.178 30.800,302.662 30.800 C 301.747 30.800,300.400 31.892,300.400 32.634 C 300.400 32.838,299.860 33.244,299.200 33.536 C 298.540 33.828,298.000 34.282,298.000 34.545 C 298.000 34.807,297.640 35.330,297.200 35.707 C 296.409 36.384,296.073 38.400,296.750 38.400 C 297.087 38.400,310.893 52.183,325.197 66.800 C 328.964 70.650,331.813 73.395,331.527 72.899 C 331.062 72.095,351.999 50.000,353.225 50.000 C 353.610 50.000,365.600 61.936,365.600 62.319 C 365.600 62.721,366.918 64.000,367.331 64.000 C 367.948 64.000,367.518 63.087,366.300 61.810 C 362.589 57.918,362.000 57.260,362.000 57.002 C 362.000 56.847,360.609 55.434,358.910 53.860 C 351.365 46.877,342.395 37.606,341.877 36.257 C 341.739 35.896,341.428 35.600,341.187 35.600 C 340.945 35.600,339.871 34.700,338.800 33.600 C 337.729 32.500,336.653 31.600,336.409 31.600 C 336.166 31.600,335.580 31.240,335.108 30.800 C 334.636 30.360,334.013 30.000,333.725 30.000 C 333.436 30.000,333.200 29.853,333.200 29.674 C 333.200 29.495,332.473 28.960,331.583 28.486 C 330.694 28.011,330.091 27.843,330.242 28.111 C 330.449 28.478,330.383 28.475,329.979 28.100 C 329.682 27.825,328.925 27.600,328.296 27.600 C 327.636 27.600,327.257 27.431,327.400 27.200 C 327.551 26.956,326.945 26.800,325.847 26.800 C 324.857 26.800,323.936 26.620,323.800 26.400 C 323.658 26.169,321.529 26.000,318.776 26.000 C 315.859 26.000,314.000 26.156,314.000 26.400 C 314.000 26.620,313.719 26.800,313.376 26.800 C 313.033 26.800,312.864 26.620,313.000 26.400 C 313.136 26.180,313.157 26.000,313.047 26.000 C 312.937 26.000,312.736 26.180,312.600 26.400 M367.383 64.827 C 367.238 65.062,367.485 65.349,367.932 65.466 C 368.423 65.595,368.659 65.901,368.530 66.239 C 368.411 66.548,368.514 66.800,368.757 66.800 C 369.352 66.800,369.296 65.960,368.643 65.100 C 368.029 64.291,367.752 64.231,367.383 64.827 M369.878 69.456 C 369.558 69.775,369.919 70.400,370.424 70.400 C 370.631 70.400,370.800 70.130,370.800 69.800 C 370.800 69.181,370.328 69.005,369.878 69.456 M370.600 72.000 C 370.308 72.472,370.687 73.200,371.224 73.200 C 371.431 73.200,371.600 72.840,371.600 72.400 C 371.600 71.556,371.018 71.324,370.600 72.000 M371.415 75.176 C 371.087 75.707,371.630 78.800,372.051 78.800 C 372.243 78.800,372.400 77.900,372.400 76.800 C 372.400 74.956,371.980 74.262,371.415 75.176 M340.592 82.400 C 344.096 86.030,347.228 89.270,347.553 89.600 C 347.878 89.930,347.404 89.300,346.500 88.200 C 345.595 87.100,342.463 83.860,339.538 81.000 L 334.221 75.800 340.592 82.400 M84.200 76.800 C 84.358 77.055,83.137 77.200,80.824 77.200 C 78.675 77.200,77.200 77.363,77.200 77.600 C 77.200 77.820,76.491 78.000,75.624 78.000 C 74.757 78.000,73.936 78.180,73.800 78.400 C 73.664 78.620,72.933 78.800,72.176 78.800 C 71.419 78.800,70.800 78.980,70.800 79.200 C 70.800 79.420,70.260 79.600,69.600 79.600 C 68.940 79.600,68.400 79.780,68.400 80.000 C 68.400 80.220,67.849 80.400,67.176 80.400 C 66.463 80.400,66.056 80.567,66.200 80.800 C 66.344 81.033,65.937 81.200,65.224 81.200 C 64.551 81.200,64.000 81.380,64.000 81.600 C 64.000 81.820,63.640 82.000,63.200 82.000 C 62.760 82.000,62.400 82.180,62.400 82.400 C 62.400 82.620,62.166 82.800,61.880 82.800 C 61.144 82.800,59.207 83.741,59.203 84.100 C 59.201 84.265,58.816 84.400,58.347 84.400 C 57.878 84.400,57.203 84.716,56.847 85.103 C 56.491 85.489,55.705 86.060,55.100 86.370 C 54.495 86.681,54.000 87.085,54.000 87.268 C 54.000 87.450,53.712 87.600,53.360 87.600 C 53.009 87.600,52.217 88.140,51.600 88.800 C 50.983 89.460,50.276 90.000,50.029 90.000 C 49.537 90.000,41.214 98.239,41.230 98.710 C 41.240 99.023,40.114 100.615,39.300 101.437 C 39.025 101.715,38.800 102.053,38.800 102.188 C 38.800 102.323,38.440 102.820,38.000 103.292 C 37.560 103.764,37.200 104.387,37.200 104.675 C 37.200 104.964,37.020 105.200,36.800 105.200 C 36.580 105.200,36.400 105.436,36.400 105.725 C 36.400 106.013,36.040 106.636,35.600 107.108 C 35.160 107.580,34.800 108.244,34.800 108.583 C 34.800 108.922,34.620 109.200,34.400 109.200 C 34.180 109.200,34.000 109.478,34.000 109.817 C 34.000 110.156,33.640 110.820,33.200 111.292 C 32.258 112.303,32.146 113.600,33.000 113.600 C 33.333 113.600,33.600 113.244,33.600 112.800 C 33.600 112.360,33.780 112.000,34.000 112.000 C 34.220 112.000,34.400 111.735,34.400 111.412 C 34.400 110.788,35.599 108.498,36.847 106.738 C 37.261 106.154,37.600 105.507,37.600 105.300 C 37.600 105.093,37.960 104.598,38.400 104.200 C 38.840 103.802,39.200 103.313,39.200 103.115 C 39.200 102.054,48.407 92.292,51.200 90.391 C 51.970 89.867,52.690 89.328,52.800 89.193 C 53.176 88.731,56.598 86.528,58.800 85.331 C 62.092 83.541,62.511 83.328,63.600 82.900 C 64.543 82.529,65.619 82.090,67.700 81.226 C 68.195 81.021,69.320 80.638,70.200 80.375 C 71.080 80.113,72.213 79.741,72.719 79.549 C 73.224 79.357,74.159 79.200,74.795 79.200 C 75.432 79.200,76.051 79.042,76.170 78.849 C 76.757 77.899,177.860 77.226,181.400 78.148 C 187.676 79.782,196.000 86.903,196.000 90.638 C 196.000 90.947,196.180 91.200,196.400 91.200 C 196.620 91.200,196.806 91.605,196.813 92.100 C 196.820 92.595,197.090 93.349,197.413 93.776 C 197.968 94.510,198.000 94.482,198.000 93.253 C 198.000 92.488,197.835 92.055,197.600 92.200 C 197.367 92.344,197.200 91.937,197.200 91.224 C 197.200 90.551,197.020 90.000,196.800 90.000 C 196.580 90.000,196.400 89.640,196.400 89.200 C 196.400 88.760,196.220 88.400,196.000 88.400 C 195.780 88.400,195.600 88.122,195.600 87.782 C 195.600 87.442,195.163 86.727,194.629 86.193 C 194.095 85.659,193.351 84.701,192.975 84.065 C 192.599 83.429,191.821 82.630,191.246 82.289 C 190.671 81.948,189.660 81.204,189.000 80.635 C 188.340 80.066,187.575 79.601,187.300 79.600 C 187.025 79.600,186.800 79.420,186.800 79.200 C 186.800 78.980,186.440 78.800,186.000 78.800 C 185.560 78.800,185.200 78.620,185.200 78.400 C 185.200 78.180,184.570 78.000,183.800 78.000 C 183.030 78.000,182.400 77.820,182.400 77.600 C 182.400 77.380,181.601 77.200,180.624 77.200 C 179.647 77.200,178.736 77.020,178.600 76.800 C 178.437 76.537,162.188 76.400,131.153 76.400 C 99.788 76.400,84.036 76.534,84.200 76.800 M371.423 83.051 C 371.102 84.330,371.524 86.494,372.033 86.180 C 372.505 85.888,372.515 82.000,372.043 82.000 C 371.847 82.000,371.568 82.473,371.423 83.051 M370.667 87.467 C 370.206 87.927,370.377 89.200,370.900 89.209 C 371.175 89.214,370.985 89.537,370.477 89.928 C 369.847 90.413,369.530 91.105,369.477 92.112 C 369.435 92.924,369.156 93.682,368.858 93.797 C 368.561 93.912,368.420 94.275,368.546 94.603 C 368.689 94.975,368.540 95.200,368.150 95.200 C 367.595 95.200,366.997 96.337,367.182 97.039 C 367.219 97.183,366.834 97.509,366.325 97.762 C 365.816 98.016,365.177 98.688,364.905 99.256 C 364.632 99.825,363.601 101.034,362.614 101.945 C 361.626 102.855,361.011 103.600,361.247 103.600 C 361.850 103.600,367.600 97.555,367.600 96.921 C 367.600 96.634,367.747 96.400,367.926 96.400 C 368.392 96.400,370.000 93.269,370.000 92.362 C 370.000 91.943,370.180 91.600,370.400 91.600 C 370.620 91.600,370.800 91.251,370.800 90.824 C 370.800 90.397,370.980 89.936,371.200 89.800 C 371.420 89.664,371.600 89.023,371.600 88.376 C 371.600 87.250,371.237 86.896,370.667 87.467 M352.400 94.600 C 353.817 96.030,355.067 97.200,355.177 97.200 C 355.287 97.200,354.217 96.030,352.800 94.600 C 351.383 93.170,350.133 92.000,350.023 92.000 C 349.913 92.000,350.983 93.170,352.400 94.600 M197.856 95.878 C 197.300 96.434,197.588 101.892,198.200 102.400 C 198.725 102.836,198.800 102.472,198.800 99.473 C 198.800 96.323,198.511 95.222,197.856 95.878 M197.300 104.284 C 197.025 104.876,196.800 105.673,196.800 106.056 C 196.800 106.439,196.620 106.864,196.400 107.000 C 196.180 107.136,196.000 107.597,196.000 108.024 C 196.000 108.451,195.820 108.800,195.600 108.800 C 195.380 108.800,195.200 109.036,195.200 109.325 C 195.200 109.613,194.840 110.236,194.400 110.708 C 193.960 111.180,193.600 111.738,193.600 111.948 C 193.600 113.273,186.503 118.161,182.600 119.525 C 180.022 120.425,175.087 120.525,130.400 120.578 C 96.590 120.619,83.985 120.756,83.400 121.091 C 82.960 121.342,82.015 121.783,81.300 122.071 C 80.585 122.360,80.000 122.731,80.000 122.898 C 80.000 123.064,79.761 123.200,79.468 123.200 C 78.897 123.200,74.800 127.077,74.800 127.618 C 74.800 127.797,74.575 128.181,74.300 128.471 C 73.463 129.357,72.691 131.100,72.951 131.520 C 73.085 131.738,72.926 132.019,72.598 132.146 C 71.866 132.426,71.770 134.543,72.500 134.302 C 72.775 134.211,73.060 133.701,73.134 133.169 C 73.207 132.636,73.432 132.029,73.634 131.820 C 73.835 131.611,74.000 131.116,74.000 130.720 C 74.000 130.324,74.180 130.000,74.400 130.000 C 74.620 130.000,74.800 129.680,74.800 129.288 C 74.800 128.897,75.160 128.317,75.600 128.000 C 76.040 127.683,76.401 127.238,76.401 127.012 C 76.402 126.785,76.941 126.240,77.600 125.800 C 78.259 125.360,78.798 124.865,78.799 124.700 C 78.799 124.535,79.070 124.400,79.400 124.400 C 79.730 124.400,80.000 124.220,80.000 124.000 C 80.000 123.780,80.191 123.600,80.424 123.600 C 80.657 123.600,80.719 123.808,80.562 124.062 C 80.385 124.348,80.452 124.415,80.738 124.238 C 80.992 124.081,81.200 123.693,81.200 123.376 C 81.200 123.059,81.560 122.800,82.000 122.800 C 82.440 122.800,82.800 122.620,82.800 122.400 C 82.800 122.180,83.419 122.000,84.176 122.000 C 84.933 122.000,85.664 121.820,85.800 121.600 C 85.963 121.337,102.404 121.200,133.824 121.200 C 165.408 121.200,181.600 121.064,181.600 120.800 C 181.600 120.580,182.230 120.400,183.000 120.400 C 183.770 120.400,184.400 120.220,184.400 120.000 C 184.400 119.780,184.749 119.600,185.176 119.600 C 185.603 119.600,186.064 119.420,186.200 119.200 C 186.336 118.980,186.662 118.803,186.924 118.806 C 187.210 118.810,187.161 118.967,186.800 119.200 C 186.344 119.494,186.329 119.589,186.737 119.594 C 187.033 119.597,187.369 119.240,187.484 118.800 C 187.603 118.346,188.030 118.000,188.470 118.000 C 188.898 118.000,189.136 117.820,189.000 117.600 C 188.864 117.380,188.943 117.200,189.175 117.200 C 189.408 117.200,190.266 116.570,191.082 115.800 C 191.899 115.030,192.709 114.400,192.883 114.400 C 193.058 114.400,193.200 114.170,193.200 113.888 C 193.200 113.607,193.560 113.117,194.000 112.800 C 194.440 112.483,194.800 111.903,194.800 111.512 C 194.800 111.120,194.980 110.800,195.200 110.800 C 195.420 110.800,195.600 110.530,195.600 110.200 C 195.600 109.870,195.780 109.600,196.000 109.600 C 196.220 109.600,196.400 109.330,196.400 109.000 C 196.400 108.670,196.580 108.400,196.800 108.400 C 197.020 108.400,197.200 107.896,197.200 107.280 C 197.200 106.664,197.394 105.966,197.631 105.729 C 197.868 105.492,198.003 104.827,197.931 104.253 L 197.800 103.209 197.300 104.284 M31.600 115.200 C 31.600 115.860,31.420 116.400,31.200 116.400 C 30.980 116.400,30.800 116.760,30.800 117.200 C 30.800 117.640,30.620 118.000,30.400 118.000 C 30.180 118.000,30.000 118.555,30.000 119.233 C 30.000 120.706,30.929 120.653,31.134 119.169 C 31.207 118.636,31.432 118.029,31.634 117.820 C 31.835 117.611,32.000 117.041,32.000 116.553 C 32.000 116.066,32.212 115.596,32.472 115.509 C 33.025 115.325,32.622 114.000,32.013 114.000 C 31.786 114.000,31.600 114.540,31.600 115.200 M29.272 122.500 C 29.342 122.995,29.580 123.400,29.800 123.400 C 30.020 123.400,30.258 122.995,30.328 122.500 C 30.416 121.881,30.251 121.600,29.800 121.600 C 29.349 121.600,29.184 121.881,29.272 122.500 M28.667 125.067 C 28.520 125.213,28.400 125.858,28.400 126.500 C 28.400 128.093,29.362 127.724,29.525 126.069 C 29.643 124.881,29.278 124.455,28.667 125.067 M28.467 129.124 C 28.430 129.412,28.220 129.536,28.000 129.400 C 27.746 129.243,27.600 130.321,27.600 132.353 C 27.600 134.113,27.767 135.656,27.971 135.782 C 28.434 136.068,28.920 132.344,28.699 130.200 C 28.609 129.320,28.504 128.836,28.467 129.124 M71.614 149.200 C 71.623 155.606,71.776 159.600,72.014 159.600 C 72.252 159.600,72.400 155.615,72.400 149.200 C 72.400 142.540,72.256 138.800,72.000 138.800 C 71.744 138.800,71.606 142.531,71.614 149.200 M71.600 167.600 C 71.600 171.867,71.749 174.400,72.000 174.400 C 72.251 174.400,72.400 171.867,72.400 167.600 C 72.400 163.333,72.251 160.800,72.000 160.800 C 71.749 160.800,71.600 163.333,71.600 167.600 M71.600 178.600 C 71.600 180.796,71.745 181.958,72.000 181.800 C 72.220 181.664,72.400 180.224,72.400 178.600 C 72.400 176.976,72.220 175.536,72.000 175.400 C 71.745 175.242,71.600 176.404,71.600 178.600 M71.600 189.200 C 71.600 193.467,71.749 196.000,72.000 196.000 C 72.251 196.000,72.400 193.467,72.400 189.200 C 72.400 184.933,72.251 182.400,72.000 182.400 C 71.749 182.400,71.600 184.933,71.600 189.200 M71.600 200.576 C 71.600 202.433,71.780 204.064,72.000 204.200 C 72.255 204.358,72.400 203.137,72.400 200.824 C 72.400 198.675,72.237 197.200,72.000 197.200 C 71.765 197.200,71.600 198.592,71.600 200.576 M299.600 203.200 C 299.600 203.420,298.790 203.600,297.800 203.600 C 296.810 203.600,296.000 203.780,296.000 204.000 C 296.000 204.220,295.460 204.400,294.800 204.400 C 294.140 204.400,293.600 204.546,293.600 204.725 C 293.600 204.904,292.970 205.298,292.200 205.600 C 291.430 205.902,290.800 206.296,290.800 206.475 C 290.800 206.654,290.551 206.800,290.246 206.800 C 289.591 206.800,284.400 211.745,284.400 212.369 C 284.400 212.606,284.220 212.800,284.000 212.800 C 283.780 212.800,283.600 213.070,283.600 213.400 C 283.600 213.730,283.341 214.000,283.024 214.000 C 282.707 214.000,282.319 214.208,282.162 214.462 C 281.985 214.748,282.052 214.815,282.338 214.638 C 282.612 214.469,282.800 214.607,282.800 214.976 C 282.800 215.319,282.541 215.600,282.224 215.600 C 281.907 215.600,281.519 215.808,281.362 216.062 C 281.185 216.348,281.252 216.415,281.538 216.238 C 281.812 216.069,282.000 216.207,282.000 216.576 C 282.000 216.919,281.820 217.200,281.600 217.200 C 281.380 217.200,281.200 217.830,281.200 218.600 C 281.200 219.370,281.020 220.000,280.800 220.000 C 280.536 220.000,280.400 236.192,280.400 267.776 C 280.400 299.196,280.263 315.637,280.000 315.800 C 279.780 315.936,279.600 316.677,279.600 317.447 C 279.600 318.279,279.438 318.747,279.200 318.600 C 278.973 318.460,278.800 318.796,278.800 319.376 C 278.800 319.939,278.620 320.400,278.400 320.400 C 278.180 320.400,278.000 320.668,278.000 320.995 C 278.000 321.843,277.191 322.790,273.814 325.900 C 273.276 326.395,272.558 326.800,272.218 326.800 C 271.878 326.800,271.600 326.980,271.600 327.200 C 271.600 327.420,271.240 327.600,270.800 327.600 C 270.356 327.600,270.000 327.867,270.000 328.200 C 270.000 330.536,277.289 324.886,279.049 321.186 C 279.517 320.204,280.147 318.860,280.449 318.200 C 280.904 317.210,281.035 308.512,281.200 268.520 C 281.357 230.485,281.508 219.932,281.900 219.540 C 282.175 219.265,282.400 218.741,282.400 218.376 C 282.400 215.556,288.381 208.315,292.243 206.460 C 293.319 205.942,294.513 205.357,294.895 205.160 C 295.277 204.962,295.941 204.800,296.371 204.800 C 296.801 204.800,297.264 204.620,297.400 204.400 C 297.708 203.902,307.338 203.861,308.305 204.353 C 308.978 204.696,309.550 204.941,312.300 206.064 C 313.015 206.356,313.600 206.731,313.600 206.898 C 313.600 207.064,313.874 207.200,314.208 207.200 C 316.174 207.200,322.005 215.068,323.335 219.514 C 323.966 221.623,324.219 318.117,323.602 321.200 C 323.360 322.410,322.983 324.300,322.764 325.400 C 319.683 340.902,310.485 354.501,296.846 363.718 C 295.611 364.553,294.195 365.403,293.700 365.608 C 293.205 365.813,292.800 366.291,292.800 366.670 C 292.800 367.202,292.692 367.252,292.325 366.885 C 291.959 366.519,291.708 366.540,291.225 366.977 C 290.881 367.288,290.425 367.542,290.210 367.541 C 289.995 367.541,289.755 367.734,289.677 367.970 C 289.598 368.207,289.818 368.400,290.167 368.400 C 290.515 368.400,290.800 368.220,290.800 368.000 C 290.800 367.780,291.132 367.600,291.539 367.600 C 292.566 367.600,294.815 366.427,295.072 365.756 C 295.190 365.450,295.536 365.200,295.843 365.200 C 296.149 365.200,296.400 365.020,296.400 364.800 C 296.400 364.580,296.856 364.400,297.413 364.400 C 298.089 364.400,298.546 364.101,298.788 363.500 C 298.987 363.005,299.161 362.769,299.175 362.975 C 299.189 363.182,299.538 363.002,299.951 362.575 C 301.155 361.333,302.378 360.400,302.805 360.400 C 303.022 360.400,303.200 360.220,303.200 360.000 C 303.200 359.780,303.371 359.600,303.581 359.600 C 303.790 359.600,305.192 358.374,306.697 356.875 C 308.202 355.376,309.741 354.032,310.117 353.887 C 310.493 353.743,310.800 353.389,310.800 353.101 C 310.800 352.813,311.160 352.317,311.600 352.000 C 312.040 351.683,312.400 351.143,312.400 350.800 C 312.400 350.457,312.760 349.917,313.200 349.600 C 313.640 349.283,314.000 348.786,314.000 348.495 C 314.000 348.204,314.360 347.580,314.800 347.108 C 315.240 346.636,315.600 346.013,315.600 345.725 C 315.600 345.436,315.780 345.200,316.000 345.200 C 316.220 345.200,316.400 344.919,316.400 344.576 C 316.400 344.233,316.580 344.064,316.800 344.200 C 317.020 344.336,317.200 344.077,317.200 343.624 C 317.200 343.171,317.380 342.800,317.600 342.800 C 317.820 342.800,318.000 342.440,318.000 342.000 C 318.000 341.560,318.180 341.200,318.400 341.200 C 318.620 341.200,318.800 340.750,318.800 340.200 C 318.800 339.650,318.980 339.200,319.200 339.200 C 319.420 339.200,319.600 338.840,319.600 338.400 C 319.600 337.960,319.780 337.600,320.000 337.600 C 320.220 337.600,320.400 337.150,320.400 336.600 C 320.400 336.050,320.580 335.600,320.800 335.600 C 321.020 335.600,321.200 335.060,321.200 334.400 C 321.200 333.740,321.380 333.200,321.600 333.200 C 321.820 333.200,322.000 332.649,322.000 331.976 C 322.000 331.263,322.167 330.856,322.400 331.000 C 322.642 331.149,322.800 330.604,322.800 329.624 C 322.800 328.731,322.980 328.000,323.200 328.000 C 323.420 328.000,323.600 327.179,323.600 326.176 C 323.600 325.063,323.756 324.449,324.000 324.600 C 324.253 324.757,324.400 323.730,324.400 321.800 C 324.400 319.870,324.547 318.843,324.800 319.000 C 325.066 319.164,325.200 303.071,325.200 271.024 C 325.200 239.141,325.064 222.800,324.800 222.800 C 324.580 222.800,324.400 221.900,324.400 220.800 C 324.400 219.700,324.220 218.800,324.000 218.800 C 323.780 218.800,323.600 218.260,323.600 217.600 C 323.600 216.940,323.420 216.400,323.200 216.400 C 322.980 216.400,322.800 216.040,322.800 215.600 C 322.800 215.160,322.620 214.800,322.400 214.800 C 322.180 214.800,322.000 214.601,322.000 214.359 C 322.000 213.629,318.675 209.338,317.600 208.681 C 317.050 208.345,316.060 207.604,315.400 207.035 C 314.740 206.466,313.975 206.001,313.700 206.000 C 313.425 206.000,313.200 205.820,313.200 205.600 C 313.200 205.380,312.840 205.200,312.400 205.200 C 311.960 205.200,311.600 205.020,311.600 204.800 C 311.600 204.580,311.060 204.400,310.400 204.400 C 309.740 204.400,309.200 204.220,309.200 204.000 C 309.200 203.780,308.311 203.600,307.224 203.600 C 306.137 203.600,305.136 203.420,305.000 203.200 C 304.864 202.980,303.593 202.800,302.176 202.800 C 300.725 202.800,299.600 202.975,299.600 203.200 M71.600 211.376 C 71.600 215.063,71.761 217.652,72.000 217.800 C 72.260 217.961,72.400 215.804,72.400 211.624 C 72.400 207.608,72.250 205.200,72.000 205.200 C 71.751 205.200,71.600 207.525,71.600 211.376 M71.600 222.400 C 71.600 224.996,71.743 226.359,72.000 226.200 C 72.220 226.064,72.400 224.354,72.400 222.400 C 72.400 220.446,72.220 218.736,72.000 218.600 C 71.743 218.441,71.600 219.804,71.600 222.400 M71.600 233.800 C 71.600 237.933,71.749 240.400,72.000 240.400 C 72.251 240.400,72.400 237.933,72.400 233.800 C 72.400 229.667,72.251 227.200,72.000 227.200 C 71.749 227.200,71.600 229.667,71.600 233.800 M71.600 244.776 C 71.600 247.192,71.760 248.800,72.000 248.800 C 72.238 248.800,72.400 247.275,72.400 245.024 C 72.400 242.937,72.221 241.137,72.000 241.000 C 71.743 240.841,71.600 242.196,71.600 244.776 M71.600 255.376 C 71.600 259.259,71.750 261.600,72.000 261.600 C 72.249 261.600,72.400 259.341,72.400 255.624 C 72.400 252.071,72.238 249.547,72.000 249.400 C 71.740 249.239,71.600 251.329,71.600 255.376 M71.600 266.376 C 71.600 268.259,71.766 269.600,72.000 269.600 C 72.231 269.600,72.400 268.341,72.400 266.624 C 72.400 264.987,72.220 263.536,72.000 263.400 C 71.746 263.243,71.600 264.329,71.600 266.376 M71.867 271.067 C 71.423 271.510,71.552 284.400,72.000 284.400 C 72.251 284.400,72.400 281.867,72.400 277.600 C 72.400 273.860,72.340 270.800,72.267 270.800 C 72.193 270.800,72.013 270.920,71.867 271.067 M71.600 288.776 C 71.600 290.659,71.766 292.000,72.000 292.000 C 72.231 292.000,72.400 290.741,72.400 289.024 C 72.400 287.387,72.220 285.936,72.000 285.800 C 71.746 285.643,71.600 286.729,71.600 288.776 M98.800 291.948 C 98.800 293.583,98.629 294.800,98.400 294.800 C 98.154 294.800,98.000 296.800,98.000 300.000 C 98.000 304.356,98.097 305.200,98.600 305.200 C 98.930 305.200,99.200 304.882,99.200 304.494 C 99.200 303.330,108.578 294.235,109.463 294.541 C 110.758 294.989,106.672 291.550,104.755 290.577 C 103.740 290.063,101.985 289.519,100.855 289.370 L 98.800 289.097 98.800 291.948 M71.606 299.500 C 71.610 303.974,71.741 306.001,72.000 305.600 C 72.524 304.789,72.524 292.800,72.000 292.800 C 71.749 292.800,71.602 295.296,71.606 299.500 M113.046 303.424 C 112.730 304.248,113.060 304.700,113.590 304.170 C 113.797 303.963,113.819 303.555,113.639 303.263 C 113.382 302.846,113.255 302.881,113.046 303.424 M103.300 304.282 C 101.301 304.667,102.536 305.238,105.200 305.160 C 107.903 305.082,108.687 304.749,107.367 304.243 C 106.688 303.982,104.761 304.001,103.300 304.282 M71.600 310.600 C 71.600 312.067,71.774 313.200,72.000 313.200 C 72.226 313.200,72.400 312.067,72.400 310.600 C 72.400 309.133,72.226 308.000,72.000 308.000 C 71.774 308.000,71.600 309.133,71.600 310.600 M27.600 318.424 C 27.600 320.028,27.758 321.150,27.966 321.021 C 28.167 320.897,28.423 321.021,28.534 321.298 C 28.824 322.017,28.837 317.579,28.548 316.500 C 28.068 314.710,27.600 315.660,27.600 318.424 M72.562 315.938 C 72.719 316.192,72.644 316.400,72.396 316.400 C 71.793 316.400,72.064 318.092,72.700 318.302 C 73.346 318.515,73.382 316.160,72.738 315.762 C 72.452 315.585,72.385 315.652,72.562 315.938 M72.809 319.500 C 72.814 319.885,73.170 320.650,73.600 321.200 C 74.030 321.750,74.387 322.380,74.393 322.600 C 74.413 323.337,79.074 327.504,80.646 328.189 C 81.501 328.562,82.513 329.032,82.895 329.234 C 83.842 329.733,84.800 329.695,84.800 329.157 C 84.800 328.914,85.079 328.822,85.421 328.953 C 85.807 329.101,85.940 329.027,85.774 328.757 C 85.626 328.519,84.897 328.395,84.153 328.481 C 83.229 328.589,82.800 328.475,82.800 328.120 C 82.800 327.834,82.440 327.600,82.000 327.600 C 81.560 327.600,81.200 327.420,81.200 327.200 C 81.200 326.980,80.840 326.800,80.400 326.800 C 79.960 326.800,79.600 326.664,79.600 326.498 C 79.600 326.331,79.060 325.956,78.400 325.664 C 77.740 325.372,77.200 324.860,77.200 324.527 C 77.200 324.194,76.660 323.417,76.000 322.800 C 75.340 322.183,74.800 321.391,74.800 321.040 C 74.800 320.688,74.620 320.400,74.400 320.400 C 74.180 320.400,74.000 320.040,74.000 319.600 C 74.000 319.156,73.733 318.800,73.400 318.800 C 73.070 318.800,72.804 319.115,72.809 319.500 M28.400 324.743 C 28.400 325.628,28.608 326.481,28.862 326.638 C 29.148 326.815,29.215 326.748,29.038 326.462 C 28.881 326.208,28.955 326.000,29.202 326.000 C 29.815 326.000,29.536 323.506,28.900 323.297 C 28.556 323.184,28.400 323.634,28.400 324.743 M29.200 328.200 C 29.200 328.876,29.383 329.206,29.700 329.100 C 29.975 329.008,30.200 328.603,30.200 328.200 C 30.200 327.797,29.975 327.392,29.700 327.300 C 29.383 327.194,29.200 327.524,29.200 328.200 M267.600 328.776 C 267.600 329.523,268.490 329.681,269.124 329.047 C 269.721 328.451,269.686 328.400,268.686 328.400 C 268.089 328.400,267.600 328.569,267.600 328.776 M87.200 329.598 C 87.200 329.866,116.893 330.000,176.200 330.000 C 234.494 330.000,265.200 329.864,265.200 329.605 C 265.200 329.347,234.489 329.208,176.200 329.204 C 116.889 329.199,87.200 329.331,87.200 329.598 M30.000 331.176 C 30.000 331.603,30.161 332.052,30.358 332.174 C 30.788 332.440,31.297 331.281,30.978 330.764 C 30.584 330.126,30.000 330.372,30.000 331.176 M30.800 333.400 C 30.800 333.767,30.994 334.002,31.230 333.923 C 31.467 333.845,31.660 333.609,31.660 333.400 C 31.660 333.191,31.467 332.956,31.230 332.877 C 30.994 332.798,30.800 333.033,30.800 333.400 M31.600 335.800 C 31.600 336.167,31.794 336.402,32.030 336.323 C 32.267 336.245,32.460 336.009,32.460 335.800 C 32.460 335.591,32.267 335.356,32.030 335.277 C 31.794 335.198,31.600 335.433,31.600 335.800 M32.400 337.400 C 32.400 337.730,32.580 338.000,32.800 338.000 C 33.020 338.000,33.200 337.730,33.200 337.400 C 33.200 337.070,33.020 336.800,32.800 336.800 C 32.580 336.800,32.400 337.070,32.400 337.400 M34.009 340.500 C 34.004 340.885,34.180 341.200,34.400 341.200 C 34.620 341.200,34.800 341.560,34.800 342.000 C 34.800 342.440,34.980 342.800,35.200 342.800 C 35.420 342.800,35.600 343.160,35.600 343.600 C 35.600 344.040,35.780 344.400,36.000 344.400 C 36.220 344.400,36.400 344.670,36.400 345.000 C 36.400 345.330,36.580 345.600,36.800 345.600 C 37.020 345.600,37.200 345.791,37.200 346.024 C 37.200 346.257,36.992 346.319,36.738 346.162 C 36.452 345.985,36.385 346.052,36.562 346.338 C 36.719 346.592,37.107 346.800,37.424 346.800 C 37.741 346.800,38.000 347.070,38.000 347.400 C 38.000 347.730,38.180 348.000,38.400 348.000 C 38.620 348.000,38.800 348.230,38.800 348.512 C 38.800 348.793,39.160 349.283,39.600 349.600 C 40.040 349.917,40.400 350.315,40.400 350.484 C 40.400 351.166,49.271 360.400,49.927 360.400 C 50.122 360.400,50.846 360.940,51.537 361.600 C 52.228 362.260,52.974 362.800,53.196 362.800 C 53.418 362.800,53.600 362.980,53.600 363.200 C 53.600 363.420,53.849 363.600,54.153 363.600 C 54.458 363.600,54.801 363.960,54.916 364.400 C 55.057 364.941,55.462 365.200,56.163 365.200 C 56.733 365.200,57.200 365.380,57.200 365.600 C 57.200 365.820,57.470 366.000,57.800 366.000 C 58.626 366.000,58.556 365.235,57.700 364.907 C 54.844 363.813,47.430 357.402,42.509 351.770 C 40.515 349.488,35.610 342.601,35.591 342.058 C 35.567 341.346,34.018 339.821,34.009 340.500 M58.800 366.400 C 58.800 366.620,59.070 366.800,59.400 366.800 C 59.730 366.800,60.000 366.620,60.000 366.400 C 60.000 366.180,59.730 366.000,59.400 366.000 C 59.070 366.000,58.800 366.180,58.800 366.400 M60.400 367.120 C 60.400 367.333,60.715 367.618,61.100 367.754 C 61.485 367.889,62.025 368.105,62.300 368.234 C 62.575 368.362,62.800 368.293,62.800 368.080 C 62.800 367.867,62.485 367.582,62.100 367.446 C 61.715 367.311,61.175 367.095,60.900 366.966 C 60.625 366.838,60.400 366.907,60.400 367.120 M63.856 368.278 C 63.405 368.728,63.581 369.200,64.200 369.200 C 64.530 369.200,64.800 369.031,64.800 368.824 C 64.800 368.319,64.175 367.958,63.856 368.278 M288.267 368.267 C 287.806 368.727,287.975 369.200,288.600 369.200 C 288.930 369.200,289.200 368.930,289.200 368.600 C 289.200 367.975,288.727 367.806,288.267 368.267 M65.396 369.207 C 65.030 369.799,65.377 370.102,66.231 369.935 C 66.856 369.813,66.863 369.749,66.298 369.281 C 65.848 368.908,65.593 368.887,65.396 369.207 M286.213 369.179 C 286.070 369.410,285.513 369.600,284.976 369.600 C 284.375 369.600,284.000 369.831,284.000 370.200 C 284.000 370.869,285.413 371.026,285.800 370.400 C 285.936 370.180,286.412 370.000,286.857 370.000 C 287.304 370.000,287.596 369.787,287.508 369.525 C 287.290 368.871,286.529 368.668,286.213 369.179 M67.856 369.878 C 67.405 370.328,67.581 370.800,68.200 370.800 C 68.530 370.800,68.800 370.631,68.800 370.424 C 68.800 369.919,68.175 369.558,67.856 369.878 M70.000 371.000 C 70.000 371.330,70.349 371.600,70.776 371.600 C 71.203 371.600,71.664 371.780,71.800 372.000 C 72.107 372.497,73.874 372.528,74.174 372.042 C 74.516 371.489,73.165 371.131,72.577 371.619 C 72.185 371.944,71.946 371.847,71.614 371.226 C 71.102 370.270,70.000 370.116,70.000 371.000 M281.478 370.656 C 281.104 371.029,281.555 371.600,282.224 371.600 C 282.541 371.600,282.800 371.330,282.800 371.000 C 282.800 370.398,281.956 370.178,281.478 370.656 M278.667 371.467 C 278.169 371.965,278.397 372.400,279.157 372.400 C 279.574 372.400,280.018 372.130,280.145 371.800 C 280.380 371.187,279.210 370.924,278.667 371.467 M75.257 372.346 C 74.558 372.802,75.024 373.028,76.945 373.161 C 78.088 373.241,78.444 373.130,78.314 372.735 C 78.106 372.102,76.034 371.839,75.257 372.346 M274.500 372.265 C 273.512 372.664,274.028 373.200,275.400 373.200 C 276.378 373.200,276.800 373.019,276.800 372.600 C 276.800 372.012,275.571 371.833,274.500 372.265 M80.098 373.066 C 79.821 373.177,79.697 373.433,79.821 373.634 C 80.109 374.099,86.400 374.119,86.400 373.654 C 86.400 373.047,81.322 372.572,80.098 373.066 M267.400 373.094 C 264.377 373.395,265.173 373.870,268.761 373.905 C 271.716 373.934,272.313 373.840,272.133 373.370 C 271.915 372.800,270.925 372.743,267.400 373.094 " stroke="none" fill="#8468c4" fill-rule="evenodd"></path><path id="path4" d="M323.842 26.468 C 323.955 26.651,324.427 26.800,324.890 26.800 C 325.354 26.800,325.610 26.676,325.459 26.525 C 325.060 26.127,323.599 26.075,323.842 26.468 M309.200 27.200 C 309.200 27.420,309.560 27.600,310.000 27.600 C 310.440 27.600,310.800 27.420,310.800 27.200 C 310.800 26.980,310.440 26.800,310.000 26.800 C 309.560 26.800,309.200 26.980,309.200 27.200 M327.400 27.200 C 327.264 27.420,327.534 27.600,328.000 27.600 C 328.466 27.600,328.736 27.420,328.600 27.200 C 328.464 26.980,328.194 26.800,328.000 26.800 C 327.806 26.800,327.536 26.980,327.400 27.200 M307.000 28.000 C 306.864 28.220,307.123 28.400,307.576 28.400 C 308.029 28.400,308.400 28.220,308.400 28.000 C 308.400 27.780,308.141 27.600,307.824 27.600 C 307.507 27.600,307.136 27.780,307.000 28.000 M305.200 28.800 C 305.200 29.020,305.470 29.200,305.800 29.200 C 306.130 29.200,306.400 29.020,306.400 28.800 C 306.400 28.580,306.130 28.400,305.800 28.400 C 305.470 28.400,305.200 28.580,305.200 28.800 M303.030 30.024 C 302.349 30.710,302.338 30.800,302.930 30.800 C 303.299 30.800,303.600 30.620,303.600 30.400 C 303.600 30.180,303.870 30.000,304.200 30.000 C 304.530 30.000,304.800 29.820,304.800 29.600 C 304.800 28.958,303.865 29.182,303.030 30.024 M294.000 37.702 C 291.470 40.178,287.150 44.626,284.400 47.586 C 281.650 50.546,270.400 61.989,259.400 73.013 C 248.399 84.038,238.149 94.455,236.620 96.163 C 235.092 97.871,226.632 106.528,217.821 115.401 C 209.009 124.274,198.650 134.788,194.800 138.766 C 190.950 142.743,182.923 150.926,176.961 156.950 C 171.000 162.975,166.011 168.195,165.874 168.552 C 165.737 168.908,165.446 169.200,165.228 169.200 C 164.766 169.200,149.368 184.582,143.200 191.205 C 140.890 193.685,131.026 203.724,121.280 213.514 C 99.767 235.124,101.349 233.037,101.040 240.213 C 100.908 243.286,100.617 248.860,100.393 252.600 C 99.751 263.351,99.519 274.400,99.935 274.400 C 100.566 274.400,100.719 272.486,100.498 267.354 C 100.342 263.755,100.418 262.260,100.779 261.825 C 101.108 261.428,101.260 259.836,101.232 257.053 C 101.210 254.755,101.396 252.364,101.646 251.738 C 101.896 251.112,102.156 248.170,102.222 245.200 C 102.423 236.262,102.741 234.576,104.200 234.711 C 105.188 234.803,105.489 234.620,105.905 233.676 C 106.182 233.046,107.352 231.552,108.505 230.356 C 109.657 229.160,111.646 227.054,112.925 225.676 C 114.203 224.297,115.969 222.648,116.850 222.010 C 117.730 221.372,118.976 220.126,119.617 219.240 C 120.259 218.354,121.199 217.357,121.706 217.025 C 122.212 216.693,123.149 215.595,123.787 214.586 C 124.589 213.317,125.295 212.681,126.074 212.525 C 126.693 212.401,127.200 212.156,127.200 211.981 C 127.200 211.284,129.369 209.140,130.589 208.630 C 131.531 208.237,131.949 207.756,132.129 206.857 C 132.292 206.039,132.850 205.316,133.783 204.712 C 134.557 204.210,135.192 203.513,135.195 203.162 C 135.200 202.501,136.385 201.219,137.031 201.175 C 137.234 201.161,138.390 199.993,139.600 198.578 C 140.810 197.164,142.087 196.006,142.438 196.004 C 143.191 195.999,144.063 195.075,144.929 193.364 C 145.273 192.684,146.047 191.694,146.648 191.164 C 147.250 190.634,148.745 189.242,149.971 188.071 C 151.197 186.900,152.830 185.341,153.600 184.605 C 154.370 183.870,155.585 183.149,156.300 183.003 C 157.502 182.756,157.600 182.618,157.600 181.158 C 157.600 179.852,157.769 179.516,158.579 179.208 C 159.118 179.003,159.878 178.333,160.270 177.718 C 160.661 177.103,161.116 176.502,161.281 176.383 C 161.445 176.263,162.928 174.853,164.576 173.250 C 166.223 171.647,167.758 170.450,167.986 170.591 C 168.214 170.732,168.400 170.580,168.400 170.253 C 168.400 169.926,168.850 169.304,169.400 168.871 C 169.950 168.439,170.400 167.891,170.400 167.654 C 170.400 167.418,170.937 166.827,171.593 166.342 C 172.250 165.856,173.259 164.746,173.836 163.874 C 174.978 162.149,176.635 160.546,177.628 160.206 C 177.973 160.088,178.555 159.364,178.921 158.596 C 179.404 157.583,179.846 157.200,180.532 157.200 C 181.584 157.200,182.800 156.076,182.800 155.104 C 182.800 154.756,183.369 153.993,184.063 153.408 C 184.758 152.823,185.851 151.622,186.491 150.738 C 187.131 149.854,188.181 148.832,188.825 148.466 C 189.468 148.100,189.996 147.590,189.997 147.334 C 190.001 146.614,192.852 144.533,194.250 144.230 C 195.334 143.994,195.528 143.754,195.707 142.417 C 195.860 141.275,196.323 140.506,197.498 139.445 C 198.369 138.658,199.583 137.291,200.195 136.407 C 200.808 135.523,201.533 134.800,201.807 134.800 C 202.081 134.800,202.821 134.290,203.453 133.667 C 204.084 133.044,205.297 132.116,206.149 131.604 C 207.000 131.093,208.171 129.938,208.749 129.037 C 210.184 126.806,211.059 125.763,213.400 123.497 C 217.695 119.340,218.326 118.800,218.891 118.800 C 219.615 118.800,220.800 117.537,220.800 116.766 C 220.800 116.452,221.620 115.296,222.622 114.197 C 223.623 113.099,224.905 111.615,225.469 110.900 C 226.033 110.185,226.722 109.600,227.000 109.600 C 227.278 109.600,228.202 108.912,229.053 108.070 C 229.904 107.229,231.356 106.121,232.280 105.608 C 233.778 104.776,233.973 104.498,234.080 103.038 C 234.184 101.621,234.319 101.412,235.078 101.491 C 236.061 101.594,237.600 99.936,237.600 98.775 C 237.600 97.869,239.462 96.372,240.226 96.665 C 240.562 96.794,240.800 96.645,240.800 96.305 C 240.800 95.495,242.425 93.742,243.467 93.428 C 243.943 93.285,244.520 92.632,244.748 91.978 C 244.976 91.324,245.486 90.670,245.881 90.525 C 246.781 90.193,247.981 88.933,250.003 86.196 C 250.871 85.021,251.945 83.944,252.390 83.803 C 252.836 83.662,253.200 83.411,253.200 83.245 C 253.200 82.050,256.207 79.537,257.462 79.683 C 258.831 79.843,259.198 79.358,258.350 78.510 C 257.764 77.924,264.671 70.673,265.587 70.913 C 266.000 71.020,266.219 70.764,266.258 70.128 C 266.343 68.755,266.987 68.164,269.018 67.595 C 271.101 67.012,271.593 66.477,270.667 65.800 C 269.863 65.212,270.210 64.800,271.509 64.800 C 272.166 64.800,272.418 64.623,272.278 64.258 C 272.163 63.960,272.461 63.285,272.939 62.758 C 273.416 62.231,274.123 61.308,274.509 60.706 C 274.894 60.105,275.658 59.500,276.205 59.363 C 276.752 59.226,277.200 58.898,277.200 58.635 C 277.200 57.954,279.652 55.703,280.573 55.538 C 280.999 55.462,281.719 54.679,282.174 53.800 C 282.847 52.499,283.244 52.177,284.301 52.075 C 285.520 51.957,286.188 51.215,285.100 51.187 C 284.753 51.178,284.785 51.025,285.203 50.687 C 285.535 50.419,285.744 49.769,285.668 49.241 C 285.521 48.229,294.792 38.400,295.894 38.400 C 296.172 38.400,296.400 37.948,296.400 37.396 C 296.400 36.844,296.760 36.084,297.200 35.707 C 297.640 35.330,298.000 34.857,298.000 34.655 C 298.000 34.453,298.315 34.049,298.700 33.757 C 299.085 33.465,299.220 33.220,299.000 33.213 C 298.779 33.206,296.529 35.226,294.000 37.702 M338.800 33.348 C 338.800 33.839,340.834 35.699,341.091 35.442 C 341.224 35.309,341.258 35.155,341.167 35.100 C 341.075 35.045,340.505 34.564,339.900 34.030 C 339.295 33.497,338.800 33.190,338.800 33.348 M342.000 36.586 C 342.000 37.502,360.579 55.955,361.038 55.495 C 361.225 55.308,342.599 36.400,342.227 36.400 C 342.102 36.400,342.000 36.484,342.000 36.586 M363.200 58.278 C 363.200 58.467,363.515 58.897,363.900 59.233 C 364.285 59.570,364.958 60.330,365.395 60.922 C 365.832 61.515,366.326 62.000,366.492 62.000 C 366.856 62.000,364.060 58.257,363.554 58.067 C 363.359 57.993,363.200 58.088,363.200 58.278 M78.600 76.800 C 78.443 77.053,79.470 77.200,81.400 77.200 C 83.330 77.200,84.357 77.053,84.200 76.800 C 84.064 76.580,82.804 76.400,81.400 76.400 C 79.996 76.400,78.736 76.580,78.600 76.800 M178.600 76.800 C 178.736 77.020,179.647 77.200,180.624 77.200 C 181.601 77.200,182.400 77.380,182.400 77.600 C 182.400 77.820,183.030 78.000,183.800 78.000 C 184.570 78.000,185.200 78.180,185.200 78.400 C 185.200 78.620,185.560 78.800,186.000 78.800 C 186.440 78.800,186.800 78.980,186.800 79.200 C 186.800 79.420,187.025 79.600,187.300 79.600 C 187.575 79.601,188.340 80.066,189.000 80.635 C 189.660 81.204,190.671 81.948,191.246 82.289 C 191.821 82.630,192.599 83.429,192.975 84.065 C 193.351 84.701,194.095 85.659,194.629 86.193 C 195.163 86.727,195.600 87.442,195.600 87.782 C 195.600 88.122,195.780 88.400,196.000 88.400 C 196.220 88.400,196.400 88.760,196.400 89.200 C 196.400 89.640,196.569 90.000,196.775 90.000 C 196.981 90.000,197.215 90.585,197.294 91.300 C 197.411 92.351,197.502 92.462,197.771 91.878 C 198.588 90.100,191.850 80.400,189.798 80.400 C 189.537 80.400,188.998 80.040,188.600 79.600 C 188.202 79.160,187.634 78.800,187.338 78.800 C 187.042 78.800,186.800 78.620,186.800 78.400 C 186.800 78.180,186.451 78.000,186.024 78.000 C 185.597 78.000,185.136 77.820,185.000 77.600 C 184.864 77.380,184.234 77.200,183.600 77.200 C 182.966 77.200,182.336 77.020,182.200 76.800 C 182.064 76.580,181.143 76.400,180.153 76.400 C 179.055 76.400,178.449 76.556,178.600 76.800 M74.200 77.600 C 74.064 77.820,73.434 78.000,72.800 78.000 C 72.166 78.000,71.536 78.180,71.400 78.400 C 71.256 78.633,71.655 78.800,72.353 78.800 C 73.013 78.800,73.664 78.620,73.800 78.400 C 73.936 78.180,74.757 78.000,75.624 78.000 C 76.491 78.000,77.200 77.820,77.200 77.600 C 77.200 77.380,76.581 77.200,75.824 77.200 C 75.067 77.200,74.336 77.380,74.200 77.600 M69.200 79.200 C 68.732 79.502,68.843 79.589,69.700 79.594 C 70.305 79.597,70.800 79.420,70.800 79.200 C 70.800 78.694,69.983 78.694,69.200 79.200 M66.800 80.000 C 66.800 80.220,67.160 80.400,67.600 80.400 C 68.040 80.400,68.400 80.220,68.400 80.000 C 68.400 79.780,68.040 79.600,67.600 79.600 C 67.160 79.600,66.800 79.780,66.800 80.000 M64.600 80.800 C 64.459 81.028,64.804 81.200,65.400 81.200 C 65.996 81.200,66.341 81.028,66.200 80.800 C 66.064 80.580,65.704 80.400,65.400 80.400 C 65.096 80.400,64.736 80.580,64.600 80.800 M62.800 81.600 C 62.800 81.820,63.070 82.000,63.400 82.000 C 63.730 82.000,64.000 81.820,64.000 81.600 C 64.000 81.380,63.730 81.200,63.400 81.200 C 63.070 81.200,62.800 81.380,62.800 81.600 M61.200 82.400 C 61.200 82.620,61.470 82.800,61.800 82.800 C 62.130 82.800,62.400 82.620,62.400 82.400 C 62.400 82.180,62.130 82.000,61.800 82.000 C 61.470 82.000,61.200 82.180,61.200 82.400 M58.000 84.000 C 58.000 84.220,58.270 84.400,58.600 84.400 C 58.930 84.400,59.200 84.220,59.200 84.000 C 59.200 83.780,58.930 83.600,58.600 83.600 C 58.270 83.600,58.000 83.780,58.000 84.000 M53.660 86.642 C 52.805 87.608,53.450 87.771,54.449 86.840 C 55.062 86.269,55.167 86.005,54.775 86.015 C 54.459 86.024,53.957 86.305,53.660 86.642 M50.460 89.042 C 49.731 89.866,50.200 90.257,50.981 89.476 C 51.321 89.136,51.600 88.754,51.600 88.629 C 51.600 88.209,51.006 88.424,50.460 89.042 M44.617 94.217 C 42.710 96.124,41.245 97.778,41.360 97.894 C 41.476 98.009,43.121 96.535,45.017 94.617 C 46.913 92.700,48.379 91.045,48.274 90.941 C 48.169 90.836,46.524 92.310,44.617 94.217 M198.000 93.953 C 198.000 94.833,198.180 95.664,198.400 95.800 C 198.620 95.936,198.811 97.342,198.825 98.924 C 198.846 101.267,198.925 101.615,199.254 100.800 C 199.476 100.250,199.565 99.170,199.453 98.400 C 199.341 97.630,199.125 96.051,198.973 94.892 C 198.639 92.343,198.000 91.727,198.000 93.953 M40.126 99.500 C 38.858 100.703,36.400 104.213,36.400 104.820 C 36.400 105.029,36.259 105.200,36.088 105.200 C 35.916 105.200,35.559 105.695,35.295 106.300 C 35.031 106.905,34.464 107.940,34.036 108.600 C 33.168 109.940,32.997 110.800,33.600 110.800 C 33.820 110.800,34.000 110.440,34.000 110.000 C 34.000 109.560,34.180 109.200,34.400 109.200 C 34.620 109.200,34.800 108.922,34.800 108.583 C 34.800 108.244,35.160 107.580,35.600 107.108 C 36.040 106.636,36.400 106.013,36.400 105.725 C 36.400 105.436,36.580 105.200,36.800 105.200 C 37.020 105.200,37.200 104.964,37.200 104.675 C 37.200 104.387,37.560 103.764,38.000 103.292 C 38.440 102.820,38.800 102.338,38.800 102.221 C 38.800 102.023,39.120 101.610,40.900 99.505 C 42.184 97.988,41.722 97.985,40.126 99.500 M358.600 106.602 C 354.200 111.084,350.398 114.762,350.152 114.776 C 349.905 114.789,348.375 116.176,346.752 117.858 C 345.128 119.540,341.280 123.478,338.200 126.609 C 321.129 143.963,311.535 153.789,306.000 159.590 C 302.590 163.164,299.291 166.563,298.670 167.144 C 287.263 177.803,269.607 196.510,270.458 197.036 C 270.748 197.215,270.816 197.149,270.638 196.862 C 270.481 196.608,270.541 196.400,270.771 196.400 C 271.164 196.400,292.400 175.381,292.400 174.993 C 292.400 174.721,295.937 171.121,321.622 145.257 C 334.590 132.198,345.200 121.440,345.200 121.350 C 345.200 121.260,346.460 119.997,348.000 118.544 C 349.540 117.092,350.800 115.704,350.800 115.460 C 350.800 115.216,354.400 111.459,358.800 107.112 C 365.408 100.583,367.578 98.197,366.700 98.426 C 366.645 98.440,363.000 102.119,358.600 106.602 M198.000 103.896 C 198.000 104.745,197.805 105.635,197.566 105.874 C 197.328 106.112,197.206 106.733,197.296 107.254 C 197.450 108.144,197.477 108.153,197.759 107.400 C 197.924 106.960,198.225 106.287,198.429 105.905 C 198.921 104.984,198.903 102.911,198.400 102.600 C 198.160 102.452,198.000 102.969,198.000 103.896 M284.875 106.425 C 284.971 106.714,285.286 107.029,285.575 107.125 C 285.875 107.225,286.025 107.075,285.925 106.775 C 285.829 106.486,285.514 106.171,285.225 106.075 C 284.925 105.975,284.775 106.125,284.875 106.425 M196.400 109.000 C 196.400 109.330,196.220 109.600,196.000 109.600 C 195.780 109.600,195.600 109.870,195.600 110.200 C 195.600 110.530,195.420 110.800,195.200 110.800 C 194.980 110.800,194.800 111.120,194.800 111.512 C 194.800 111.903,194.440 112.483,194.000 112.800 C 193.560 113.117,193.200 113.607,193.200 113.888 C 193.200 114.170,193.058 114.400,192.883 114.400 C 192.709 114.400,191.899 115.030,191.082 115.800 C 190.266 116.570,189.408 117.200,189.175 117.200 C 188.943 117.200,188.864 117.380,189.000 117.600 C 189.136 117.820,188.877 118.000,188.424 118.000 C 187.971 118.000,187.600 118.180,187.600 118.400 C 187.600 119.382,188.892 118.589,191.674 115.900 C 195.607 112.097,198.134 108.400,196.800 108.400 C 196.580 108.400,196.400 108.670,196.400 109.000 M287.676 109.447 C 288.032 109.803,288.521 109.973,288.762 109.824 C 289.556 109.333,289.219 108.800,288.114 108.800 C 287.114 108.800,287.079 108.851,287.676 109.447 M186.200 119.200 C 186.064 119.420,185.603 119.600,185.176 119.600 C 184.749 119.600,184.400 119.780,184.400 120.000 C 184.400 120.657,185.894 120.452,186.161 119.758 C 186.306 119.381,186.660 119.214,187.024 119.354 C 187.377 119.489,187.537 119.422,187.397 119.195 C 187.083 118.687,186.516 118.689,186.200 119.200 M255.017 119.572 C 254.721 120.051,255.474 120.525,256.007 120.196 C 256.454 119.919,256.160 119.200,255.600 119.200 C 255.406 119.200,255.144 119.368,255.017 119.572 M181.600 120.800 C 181.600 121.020,182.050 121.200,182.600 121.200 C 183.150 121.200,183.600 121.020,183.600 120.800 C 183.600 120.580,183.150 120.400,182.600 120.400 C 182.050 120.400,181.600 120.580,181.600 120.800 M85.800 121.600 C 85.636 121.866,101.388 122.000,132.753 122.000 C 163.788 122.000,180.037 121.863,180.200 121.600 C 180.364 121.334,164.612 121.200,133.247 121.200 C 102.212 121.200,85.963 121.337,85.800 121.600 M82.800 122.400 C 82.800 122.620,82.440 122.800,82.000 122.800 C 81.560 122.800,81.200 122.980,81.200 123.200 C 81.200 123.420,81.560 123.600,82.000 123.600 C 82.440 123.600,82.800 123.420,82.800 123.200 C 82.800 122.980,83.239 122.800,83.776 122.800 C 84.313 122.800,84.864 122.620,85.000 122.400 C 85.144 122.167,84.737 122.000,84.024 122.000 C 83.351 122.000,82.800 122.180,82.800 122.400 M28.692 123.842 C 28.531 124.002,28.400 124.409,28.400 124.747 C 28.400 125.197,28.518 125.242,28.845 124.915 C 29.090 124.670,29.221 124.263,29.137 124.010 C 29.052 123.757,28.852 123.681,28.692 123.842 M78.799 124.700 C 78.798 124.865,78.259 125.360,77.600 125.800 C 76.941 126.240,76.402 126.759,76.401 126.953 C 76.401 127.147,76.011 127.643,75.536 128.056 C 75.061 128.468,74.778 128.911,74.907 129.040 C 75.131 129.264,79.600 125.044,79.600 124.609 C 79.600 124.494,79.420 124.400,79.200 124.400 C 78.980 124.400,78.799 124.535,78.799 124.700 M262.800 134.014 C 262.800 134.587,263.647 134.913,264.061 134.499 C 264.317 134.243,264.166 134.032,263.626 133.891 C 263.172 133.772,262.800 133.827,262.800 134.014 M248.400 147.386 C 248.400 148.380,250.006 149.136,250.431 148.343 C 250.738 147.768,250.744 147.588,250.448 147.770 C 250.211 147.917,249.653 147.842,249.208 147.604 C 248.764 147.367,248.400 147.268,248.400 147.386 M240.643 156.633 C 240.274 157.593,240.328 157.666,241.296 157.528 C 242.446 157.364,242.782 156.000,241.672 156.000 C 241.240 156.000,240.776 156.285,240.643 156.633 M236.782 160.834 C 236.086 162.134,236.711 162.271,237.903 161.079 C 238.952 160.030,238.958 160.000,238.105 160.000 C 237.623 160.000,237.027 160.375,236.782 160.834 M233.200 164.633 C 233.200 165.340,234.061 165.217,234.308 164.475 C 234.395 164.214,234.182 164.000,233.833 164.000 C 233.485 164.000,233.200 164.285,233.200 164.633 M224.460 173.442 C 223.645 174.363,224.082 174.445,225.206 173.582 C 225.856 173.082,225.992 172.820,225.600 172.824 C 225.270 172.828,224.757 173.105,224.460 173.442 M200.000 181.400 C 200.000 181.730,200.180 182.000,200.400 182.000 C 200.620 182.000,200.800 181.730,200.800 181.400 C 200.800 181.070,200.620 180.800,200.400 180.800 C 200.180 180.800,200.000 181.070,200.000 181.400 M210.877 186.430 C 210.956 186.667,211.191 186.860,211.400 186.860 C 211.609 186.860,211.845 186.667,211.923 186.430 C 212.002 186.194,211.767 186.000,211.400 186.000 C 211.033 186.000,210.798 186.194,210.877 186.430 M268.900 197.798 C 268.157 198.642,268.294 198.873,269.200 198.307 C 269.640 198.032,270.000 197.671,270.000 197.504 C 270.000 197.027,269.449 197.175,268.900 197.798 M265.661 201.055 C 264.925 201.825,264.430 202.563,264.561 202.694 C 264.692 202.826,264.845 202.856,264.900 202.762 C 264.955 202.668,265.620 201.918,266.378 201.096 C 268.121 199.205,267.465 199.168,265.661 201.055 M300.400 202.400 C 299.977 202.673,300.530 202.790,302.276 202.794 C 303.638 202.797,304.864 202.980,305.000 203.200 C 305.136 203.420,306.137 203.600,307.224 203.600 C 308.311 203.600,309.200 203.780,309.200 204.000 C 309.200 204.220,309.740 204.400,310.400 204.400 C 311.060 204.400,311.600 204.580,311.600 204.800 C 311.600 205.020,311.960 205.200,312.400 205.200 C 312.840 205.200,313.200 205.380,313.200 205.600 C 313.200 205.820,313.425 206.000,313.700 206.000 C 313.975 206.001,314.740 206.466,315.400 207.035 C 316.060 207.604,317.050 208.345,317.600 208.681 C 318.675 209.338,322.000 213.629,322.000 214.359 C 322.000 214.601,322.180 214.800,322.400 214.800 C 322.620 214.800,322.800 215.160,322.800 215.600 C 322.800 216.040,322.980 216.400,323.200 216.400 C 323.420 216.400,323.600 216.940,323.600 217.600 C 323.600 218.260,323.780 218.800,324.000 218.800 C 324.220 218.800,324.400 219.700,324.400 220.800 C 324.400 221.900,324.580 222.800,324.800 222.800 C 325.020 222.800,325.200 222.001,325.200 221.024 C 325.200 220.047,325.020 219.136,324.800 219.000 C 324.580 218.864,324.400 218.324,324.400 217.800 C 324.400 217.276,324.220 216.736,324.000 216.600 C 323.780 216.464,323.600 216.003,323.600 215.576 C 323.600 215.149,323.420 214.800,323.200 214.800 C 322.980 214.800,322.800 214.607,322.800 214.372 C 322.800 213.053,317.984 207.515,315.895 206.432 C 315.293 206.120,314.800 205.715,314.800 205.532 C 314.800 205.350,314.440 205.200,314.000 205.200 C 313.560 205.200,313.200 205.020,313.200 204.800 C 313.200 204.580,312.851 204.400,312.424 204.400 C 311.997 204.400,311.536 204.220,311.400 204.000 C 311.264 203.780,310.724 203.600,310.200 203.600 C 309.676 203.600,309.136 203.420,309.000 203.200 C 308.864 202.980,307.874 202.800,306.800 202.800 C 305.726 202.800,304.736 202.620,304.600 202.400 C 304.284 201.889,301.190 201.889,300.400 202.400 M295.600 203.177 C 295.270 203.359,294.460 203.732,293.800 204.007 C 291.414 205.001,290.800 205.341,290.800 205.668 C 290.800 205.850,290.538 206.000,290.218 206.000 C 289.477 206.000,283.914 211.594,283.288 212.967 C 283.005 213.587,282.974 214.000,283.209 214.000 C 283.424 214.000,283.600 213.730,283.600 213.400 C 283.600 213.070,283.780 212.800,284.000 212.800 C 284.220 212.800,284.400 212.606,284.400 212.369 C 284.400 211.745,289.591 206.800,290.246 206.800 C 290.551 206.800,290.800 206.654,290.800 206.475 C 290.800 206.296,291.430 205.902,292.200 205.600 C 292.970 205.298,293.600 204.904,293.600 204.725 C 293.600 204.546,294.140 204.400,294.800 204.400 C 295.460 204.400,296.000 204.220,296.000 204.000 C 296.000 203.780,296.810 203.600,297.800 203.600 C 298.790 203.600,299.600 203.420,299.600 203.200 C 299.600 202.723,296.458 202.705,295.600 203.177 M262.600 203.995 C 260.548 205.813,242.147 224.305,239.310 227.400 C 233.680 233.541,233.331 233.986,234.742 233.231 C 235.521 232.814,252.400 216.192,252.400 215.841 C 252.400 215.730,253.525 214.502,254.900 213.112 C 256.275 211.722,258.750 209.090,260.400 207.264 C 262.050 205.438,263.475 203.867,263.567 203.772 C 263.889 203.439,262.995 203.644,262.600 203.995 M137.010 205.983 C 136.845 206.251,136.907 206.667,137.148 206.908 C 137.763 207.523,138.152 207.000,137.692 206.179 C 137.412 205.679,137.231 205.627,137.010 205.983 M282.108 214.828 C 282.076 215.252,282.219 215.600,282.425 215.600 C 282.880 215.600,282.927 214.525,282.483 214.251 C 282.309 214.144,282.140 214.403,282.108 214.828 M280.400 219.000 C 280.400 219.550,280.580 220.000,280.800 220.000 C 281.020 220.000,281.200 219.550,281.200 219.000 C 281.200 218.450,281.020 218.000,280.800 218.000 C 280.580 218.000,280.400 218.450,280.400 219.000 M123.456 221.478 C 123.005 221.928,123.181 222.400,123.800 222.400 C 124.130 222.400,124.400 222.231,124.400 222.024 C 124.400 221.519,123.775 221.158,123.456 221.478 M279.900 221.833 C 279.735 221.998,279.600 243.289,279.600 269.147 C 279.600 300.618,279.733 316.027,280.002 315.758 C 280.267 315.493,280.369 299.451,280.302 268.445 C 280.246 242.644,280.065 221.668,279.900 221.833 M118.000 225.957 C 118.000 226.154,118.270 226.418,118.600 226.545 C 118.965 226.685,119.200 226.545,119.200 226.187 C 119.200 225.864,118.930 225.600,118.600 225.600 C 118.270 225.600,118.000 225.761,118.000 225.957 M163.867 233.467 C 163.360 233.974,163.603 234.400,164.400 234.400 C 164.844 234.400,165.200 234.133,165.200 233.800 C 165.200 233.191,164.354 232.979,163.867 233.467 M232.857 234.457 C 232.575 234.909,232.432 235.366,232.540 235.473 C 232.647 235.581,232.944 235.278,233.200 234.800 C 233.805 233.670,233.524 233.390,232.857 234.457 M231.123 236.326 C 230.835 236.726,230.285 237.170,229.900 237.314 C 229.515 237.457,229.200 237.851,229.200 238.187 C 229.200 238.524,228.969 238.800,228.687 238.800 C 228.235 238.800,221.768 245.237,203.335 264.032 C 200.439 266.984,195.792 271.650,193.008 274.400 C 188.817 278.539,179.614 288.065,172.282 295.853 C 171.166 297.038,170.867 297.594,171.224 297.815 C 171.547 298.014,171.623 297.960,171.438 297.662 C 171.281 297.408,171.343 297.200,171.575 297.200 C 172.108 297.200,197.895 271.422,199.444 269.341 C 200.075 268.493,201.223 267.264,201.995 266.609 C 202.768 265.955,205.560 263.208,208.200 260.506 C 210.840 257.804,217.158 251.385,222.240 246.241 C 230.239 238.145,232.528 235.600,231.810 235.600 C 231.720 235.600,231.410 235.927,231.123 236.326 M108.632 237.406 C 107.891 237.967,107.890 238.015,108.586 238.784 C 109.491 239.785,110.000 239.494,110.000 237.976 C 110.000 236.662,109.752 236.559,108.632 237.406 M160.480 237.280 C 159.920 237.840,159.840 238.800,160.354 238.800 C 160.549 238.800,161.003 238.350,161.363 237.800 C 162.074 236.716,161.426 236.334,160.480 237.280 M325.354 241.600 C 325.354 244.350,325.418 245.475,325.496 244.100 C 325.574 242.725,325.574 240.475,325.496 239.100 C 325.418 237.725,325.354 238.850,325.354 241.600 M156.700 240.845 C 155.837 241.332,155.777 242.400,156.613 242.400 C 157.250 242.400,157.776 241.511,157.538 240.838 C 157.449 240.588,157.150 240.591,156.700 240.845 M116.892 246.875 C 116.979 247.136,117.264 247.421,117.525 247.508 C 117.818 247.606,117.907 247.423,117.757 247.033 C 117.478 246.306,116.652 246.155,116.892 246.875 M147.878 249.056 C 147.571 249.362,147.911 250.000,148.381 250.000 C 148.564 250.000,148.818 249.730,148.945 249.400 C 149.173 248.805,148.383 248.550,147.878 249.056 M325.270 284.433 C 325.309 300.145,325.447 310.840,325.578 308.200 C 325.837 302.962,325.654 256.321,325.373 256.040 C 325.278 255.945,325.232 268.722,325.270 284.433 M129.444 259.129 C 129.152 259.602,130.213 260.529,130.817 260.328 C 131.080 260.240,130.938 259.887,130.470 259.464 C 130.027 259.063,129.576 258.915,129.444 259.129 M133.495 263.903 C 133.716 264.479,134.470 264.389,134.680 263.761 C 134.751 263.547,134.468 263.371,134.050 263.371 C 133.583 263.371,133.369 263.576,133.495 263.903 M99.067 279.867 C 98.636 280.297,98.759 285.200,99.200 285.200 C 99.429 285.200,99.600 284.000,99.600 282.400 C 99.600 279.585,99.556 279.377,99.067 279.867 M98.048 292.400 C 98.087 293.720,98.273 294.800,98.460 294.800 C 98.647 294.800,98.800 293.720,98.800 292.400 C 98.800 291.020,98.625 290.000,98.388 290.000 C 98.143 290.000,98.005 290.973,98.048 292.400 M162.800 300.765 C 162.800 301.171,163.823 301.111,164.255 300.678 C 164.408 300.525,164.143 300.400,163.667 300.400 C 163.190 300.400,162.800 300.564,162.800 300.765 M150.000 301.503 C 150.000 301.955,153.076 302.125,153.346 301.688 C 153.461 301.501,152.756 301.306,151.778 301.255 C 150.800 301.205,150.000 301.316,150.000 301.503 M128.000 303.200 C 128.000 303.679,129.484 303.679,130.600 303.200 C 131.220 302.934,131.017 302.850,129.700 302.828 C 128.765 302.813,128.000 302.980,128.000 303.200 M118.320 304.080 C 118.693 304.453,118.907 304.453,119.280 304.080 C 119.653 303.707,119.547 303.600,118.800 303.600 C 118.053 303.600,117.947 303.707,118.320 304.080 M279.019 316.900 C 278.852 317.285,278.852 317.915,279.019 318.300 C 279.309 318.967,279.332 318.967,279.491 318.300 C 279.774 317.119,279.403 316.019,279.019 316.900 M278.196 319.500 C 278.037 319.995,277.748 320.400,277.553 320.400 C 277.359 320.400,277.200 320.720,277.200 321.111 C 277.200 321.502,276.103 322.864,274.762 324.139 C 272.460 326.326,271.573 327.952,273.778 325.940 C 276.993 323.008,278.000 321.836,278.000 321.029 C 278.000 320.720,278.201 320.400,278.446 320.318 C 278.691 320.236,278.800 319.816,278.688 319.385 C 278.497 318.649,278.467 318.656,278.196 319.500 M324.400 321.400 C 324.400 323.063,324.549 323.955,324.800 323.800 C 325.020 323.664,325.200 322.584,325.200 321.400 C 325.200 320.216,325.020 319.136,324.800 319.000 C 324.549 318.845,324.400 319.737,324.400 321.400 M77.200 324.704 C 77.200 324.871,77.560 325.232,78.000 325.507 C 78.930 326.088,79.054 325.797,78.229 324.971 C 77.598 324.341,77.200 324.237,77.200 324.704 M323.600 326.000 C 323.600 326.996,323.758 327.550,324.000 327.400 C 324.220 327.264,324.400 326.634,324.400 326.000 C 324.400 325.366,324.220 324.736,324.000 324.600 C 323.758 324.450,323.600 325.004,323.600 326.000 M322.800 329.224 C 322.800 329.937,322.967 330.344,323.200 330.200 C 323.420 330.064,323.600 329.513,323.600 328.976 C 323.600 328.439,323.420 328.000,323.200 328.000 C 322.980 328.000,322.800 328.551,322.800 329.224 M322.000 331.800 C 322.000 332.396,322.172 332.741,322.400 332.600 C 322.620 332.464,322.800 332.104,322.800 331.800 C 322.800 331.496,322.620 331.136,322.400 331.000 C 322.172 330.859,322.000 331.204,322.000 331.800 M321.200 334.000 C 321.200 334.440,321.380 334.800,321.600 334.800 C 321.820 334.800,322.000 334.440,322.000 334.000 C 322.000 333.560,321.820 333.200,321.600 333.200 C 321.380 333.200,321.200 333.560,321.200 334.000 M320.400 336.400 C 320.400 336.840,320.580 337.200,320.800 337.200 C 321.020 337.200,321.200 336.840,321.200 336.400 C 321.200 335.960,321.020 335.600,320.800 335.600 C 320.580 335.600,320.400 335.960,320.400 336.400 M319.600 338.200 C 319.600 338.530,319.780 338.800,320.000 338.800 C 320.220 338.800,320.400 338.530,320.400 338.200 C 320.400 337.870,320.220 337.600,320.000 337.600 C 319.780 337.600,319.600 337.870,319.600 338.200 M318.800 339.800 C 318.800 340.130,318.980 340.400,319.200 340.400 C 319.420 340.400,319.600 340.130,319.600 339.800 C 319.600 339.470,319.420 339.200,319.200 339.200 C 318.980 339.200,318.800 339.470,318.800 339.800 M33.200 340.151 C 33.200 340.454,33.464 340.921,33.787 341.189 C 34.110 341.457,34.345 341.794,34.309 341.938 C 34.177 342.459,36.030 346.000,36.434 346.000 C 36.661 346.000,36.720 346.225,36.565 346.500 C 36.387 346.816,36.488 346.798,36.841 346.450 C 37.274 346.024,37.287 345.859,36.900 345.717 C 36.625 345.616,36.400 345.278,36.400 344.967 C 36.400 344.655,36.220 344.400,36.000 344.400 C 35.780 344.400,35.600 344.040,35.600 343.600 C 35.600 343.160,35.420 342.800,35.200 342.800 C 34.980 342.800,34.800 342.440,34.800 342.000 C 34.800 341.560,34.620 341.200,34.400 341.200 C 34.180 341.200,34.000 340.840,34.000 340.400 C 34.000 339.960,33.820 339.600,33.600 339.600 C 33.380 339.600,33.200 339.848,33.200 340.151 M316.400 344.487 C 316.400 344.842,316.175 345.214,315.900 345.312 C 315.625 345.410,315.490 345.590,315.601 345.713 C 315.711 345.835,316.151 345.679,316.579 345.366 C 317.183 344.924,317.250 344.690,316.879 344.319 C 316.507 343.947,316.400 343.985,316.400 344.487 M314.668 347.229 C 314.269 347.695,314.037 348.170,314.152 348.286 C 314.462 348.595,315.687 347.261,315.529 346.787 C 315.455 346.564,315.067 346.763,314.668 347.229 M37.361 347.417 C 37.411 347.757,37.732 348.362,38.074 348.761 C 38.416 349.161,38.764 349.686,38.848 349.929 C 39.370 351.444,48.082 360.161,51.200 362.290 C 51.750 362.665,52.549 363.293,52.975 363.686 C 53.822 364.466,54.800 364.634,54.800 364.000 C 54.800 363.780,54.530 363.600,54.200 363.600 C 53.870 363.600,53.600 363.420,53.600 363.200 C 53.600 362.980,53.418 362.800,53.196 362.800 C 52.974 362.800,52.228 362.260,51.537 361.600 C 50.846 360.940,50.122 360.400,49.927 360.400 C 49.271 360.400,40.400 351.166,40.400 350.484 C 40.400 350.315,40.040 349.917,39.600 349.600 C 39.160 349.283,38.800 348.793,38.800 348.512 C 38.800 348.230,38.620 348.000,38.400 348.000 C 38.180 348.000,38.000 347.730,38.000 347.400 C 38.000 347.070,37.836 346.800,37.635 346.800 C 37.435 346.800,37.312 347.078,37.361 347.417 M312.860 349.842 C 312.562 350.178,312.399 350.532,312.495 350.629 C 312.592 350.726,312.998 350.444,313.398 350.002 C 313.797 349.561,313.961 349.207,313.762 349.215 C 313.563 349.224,313.157 349.505,312.860 349.842 M306.681 356.830 C 305.186 358.354,303.791 359.600,303.581 359.600 C 303.372 359.600,303.200 359.780,303.200 360.000 C 303.200 360.220,303.358 360.400,303.551 360.400 C 303.923 360.400,310.000 354.567,310.000 354.210 C 310.000 353.640,309.167 354.298,306.681 356.830 M301.749 360.915 C 300.819 361.916,299.389 362.982,299.100 362.893 C 298.935 362.842,298.800 362.980,298.800 363.200 C 298.800 363.723,299.033 363.705,300.060 363.100 C 300.970 362.564,302.800 360.882,302.800 360.582 C 302.800 360.240,302.200 360.430,301.749 360.915 M296.400 364.800 C 296.400 365.020,296.130 365.200,295.800 365.200 C 295.470 365.200,295.200 365.380,295.200 365.600 C 295.200 366.120,295.252 366.113,296.739 365.371 C 298.202 364.641,298.316 364.400,297.200 364.400 C 296.760 364.400,296.400 364.580,296.400 364.800 " stroke="none" fill="#f3e0a3" fill-rule="evenodd"></path></g></svg>